<?xml version="1.0" standalone="no"?>
<!DOCTYPE svg PUBLIC "-//W3C//DTD SVG 20010904//EN"
 "http://www.w3.org/TR/2001/REC-SVG-20010904/DTD/svg10.dtd">
<svg version="1.0" xmlns="http://www.w3.org/2000/svg"
 width="500.000000pt" height="500.000000pt" viewBox="0 0 500.000000 500.000000"
 preserveAspectRatio="xMidYMid meet">

<g transform="translate(0.000000,500.000000) scale(0.100000,-0.100000)"
fill="#00000000" stroke="none">
<path fill="#e95c3c" d="M2535 4375 c-29 -118 -27 -372 3 -509 34 -154 86 -296 176 -481 121
-250 228 -423 576 -930 295 -429 402 -638 417 -810 l6 -70 33 98 c58 171 69
243 68 432 0 150 -3 183 -27 279 -28 113 -84 255 -139 354 -95 171 -214 324
-521 671 -409 464 -519 653 -561 961 l-12 85 -19 -80z"/>
<path fill="#e3463d" d="M2192 3923 c-182 -384 -226 -714 -137 -1030 33 -117 139 -327 222
-438 97 -131 357 -386 598 -585 277 -231 403 -346 482 -444 70 -87 137 -211
148 -276 4 -22 10 -40 14 -40 10 0 76 89 99 136 63 125 68 289 13 454 -86 256
-246 498 -696 1050 -390 479 -533 687 -623 906 -44 105 -63 195 -64 290 0 46
-1 84 -2 84 -2 0 -26 -48 -54 -107z"/>
<path fill="#e32b44" d="M1759 3343 c-209 -216 -352 -434 -442 -674 -170 -452 -115 -954 147
-1348 329 -495 906 -748 1473 -647 155 28 225 57 368 151 173 115 215 228 140
384 -53 110 -215 267 -555 536 -324 257 -445 362 -595 517 -126 129 -171 182
-243 288 -108 160 -178 333 -203 499 -14 97 -7 255 15 346 8 33 13 61 12 63
-2 1 -54 -51 -117 -115z"/>
</g>
</svg>
