<svg xmlns="http://www.w3.org/2000/svg" xmlns:xlink="http://www.w3.org/1999/xlink" width="500" zoomAndPan="magnify" viewBox="0 0 375 187.499995" height="250" preserveAspectRatio="xMidYMid meet" version="1.0"><defs><clipPath id="a56da62c92"><path d="M 165 71 L 211 71 L 211 115.835938 L 165 115.835938 Z M 165 71 " clip-rule="nonzero"/></clipPath><clipPath id="f600ae97fd"><path d="M 236 71 L 281 71 L 281 115.835938 L 236 115.835938 Z M 236 71 " clip-rule="nonzero"/></clipPath><clipPath id="b8d1fc9274"><path d="M 58 71 L 103 71 L 103 115.835938 L 58 115.835938 Z M 58 71 " clip-rule="nonzero"/></clipPath><clipPath id="b044bca50b"><path d="M 325 71 L 355.800781 71 L 355.800781 115.835938 L 325 115.835938 Z M 325 71 " clip-rule="nonzero"/></clipPath><clipPath id="968fe01afc"><path d="M 138 71 L 165 71 L 165 115.835938 L 138 115.835938 Z M 138 71 " clip-rule="nonzero"/></clipPath><clipPath id="edd20898fe"><path d="M 214 71 L 236 71 L 236 115.835938 L 214 115.835938 Z M 214 71 " clip-rule="nonzero"/></clipPath><clipPath id="8297ed3cf1"><path d="M 19.199219 71 L 60 71 L 60 115.835938 L 19.199219 115.835938 Z M 19.199219 71 " clip-rule="nonzero"/></clipPath><clipPath id="836c77514f"><path d="M 107 71 L 138 71 L 138 115.835938 L 107 115.835938 Z M 107 71 " clip-rule="nonzero"/></clipPath><clipPath id="13a6f3d80b"><path d="M 283 71 L 325 71 L 325 115.835938 L 283 115.835938 Z M 283 71 " clip-rule="nonzero"/></clipPath></defs><g clip-path="url(#a56da62c92)"><path fill="#0e74bb" d="M 186.082031 71.214844 C 180.6875 71.828125 176.101562 74.035156 172.238281 77.882812 C 168.835938 81.265625 166.839844 85 165.964844 89.589844 C 165.644531 91.269531 165.644531 95.578125 165.964844 97.179688 C 166.492188 99.847656 167.550781 102.734375 168.722656 104.746094 C 171.734375 109.953125 177.402344 114.042969 183.148438 115.183594 C 187.242188 115.992188 191.195312 115.746094 195.226562 114.414062 C 205.15625 111.144531 211.457031 101.589844 210.347656 91.5 C 209.886719 87.253906 208.261719 82.960938 206.058594 80.140625 C 204.914062 78.664062 202.671875 76.496094 201.113281 75.34375 C 198.449219 73.394531 195.113281 71.957031 191.878906 71.40625 C 190.449219 71.164062 187.460938 71.058594 186.082031 71.214844 Z M 191.582031 76.085938 C 197.777344 77.382812 202.683594 81.675781 204.808594 87.664062 C 206.074219 91.230469 206.097656 95.332031 204.886719 99 C 203.394531 103.488281 200.277344 107.117188 196.15625 109.183594 C 189.691406 112.425781 182.117188 111.566406 176.566406 106.976562 C 174.039062 104.875 171.824219 101.515625 171.015625 98.527344 C 170.371094 96.117188 170.125 92.667969 170.445312 90.371094 C 170.730469 88.28125 171.929688 85.539062 173.488281 83.355469 C 174.453125 82.011719 176.398438 80.050781 177.738281 79.074219 C 179.785156 77.574219 182.761719 76.292969 184.988281 75.972656 C 185.515625 75.894531 186.097656 75.804688 186.277344 75.777344 C 187.050781 75.636719 190.386719 75.832031 191.582031 76.085938 Z M 191.582031 76.085938 " fill-opacity="1" fill-rule="nonzero"/></g><g clip-path="url(#f600ae97fd)"><path fill="#0e74bb" d="M 256.472656 71.226562 C 252.96875 71.558594 249.207031 72.933594 246.101562 74.996094 C 240.898438 78.457031 237.410156 83.714844 236.367188 89.667969 C 236.054688 91.421875 235.992188 94.78125 236.238281 96.410156 C 236.753906 99.757812 238.21875 103.605469 239.882812 105.988281 C 242.226562 109.347656 245.613281 112.171875 249.296875 113.851562 C 252.296875 115.210938 256.574219 115.902344 259.949219 115.59375 C 263.207031 115.285156 265.820312 114.554688 268.640625 113.144531 C 274.773438 110.105469 278.945312 104.773438 280.453125 98.050781 C 280.710938 96.960938 280.75 96.410156 280.75 93.847656 C 280.75 90.433594 280.554688 89.203125 279.589844 86.28125 C 278.457031 82.832031 277.050781 80.550781 274.503906 77.996094 C 272.222656 75.714844 270.367188 74.367188 267.871094 73.1875 C 264.300781 71.496094 260.488281 70.84375 256.472656 71.226562 Z M 261.878906 76.074219 C 266.296875 76.957031 270.253906 79.496094 272.816406 83.089844 C 273.832031 84.511719 275.03125 86.949219 275.46875 88.460938 C 276.679688 92.628906 276.320312 97.128906 274.488281 100.964844 C 272.351562 105.4375 268.925781 108.527344 264.378906 110.105469 C 256.949219 112.683594 248.921875 110.285156 244.246094 104.078125 C 241.789062 100.808594 240.757812 97.589844 240.730469 93.078125 C 240.71875 90.742188 240.875 89.589844 241.425781 88.011719 C 242.378906 85.34375 243.785156 83.191406 246.027344 80.960938 C 248.949219 78.0625 251.898438 76.523438 255.761719 75.894531 C 257.269531 75.652344 260.207031 75.742188 261.878906 76.074219 Z M 261.878906 76.074219 " fill-opacity="1" fill-rule="nonzero"/></g><g clip-path="url(#b8d1fc9274)"><path fill="#0e74bb" d="M 100.277344 71.316406 L 99.105469 71.355469 L 79.027344 93.101562 C 67.988281 105.066406 58.910156 114.925781 58.855469 115.03125 C 58.765625 115.171875 59.28125 115.195312 61.753906 115.195312 L 64.769531 115.195312 L 81.5 97.246094 L 98.242188 79.304688 L 98.28125 97.308594 L 98.308594 115.324219 L 102.816406 115.324219 L 102.816406 71.367188 L 102.132812 71.316406 C 101.773438 71.304688 100.933594 71.289062 100.277344 71.316406 Z M 100.277344 71.316406 " fill-opacity="1" fill-rule="nonzero"/></g><g clip-path="url(#b044bca50b)"><path fill="#0e74bb" d="M 325.558594 71.878906 C 325.726562 72.253906 328.699219 78.664062 332.191406 86.128906 L 338.515625 99.679688 L 338.515625 115.195312 L 343.152344 115.195312 L 343.152344 99.488281 L 349.398438 86.460938 L 355.644531 73.445312 L 355.644531 71.214844 L 353.621094 71.214844 L 351.585938 71.226562 L 346.242188 82.371094 C 343.304688 88.5 340.871094 93.527344 340.832031 93.527344 C 340.792969 93.527344 338.398438 88.5 335.488281 82.371094 L 330.207031 71.214844 L 325.25 71.214844 Z M 325.558594 71.878906 " fill-opacity="1" fill-rule="nonzero"/></g><g clip-path="url(#968fe01afc)"><path fill="#0e74bb" d="M 138.105469 73.585938 L 138.105469 75.832031 L 148.925781 75.832031 L 148.925781 115.195312 L 153.433594 115.195312 L 153.433594 75.832031 L 164.382812 75.832031 L 164.382812 71.34375 L 138.105469 71.34375 Z M 138.105469 73.585938 " fill-opacity="1" fill-rule="nonzero"/></g><g clip-path="url(#edd20898fe)"><path fill="#0e74bb" d="M 214.097656 93.269531 L 214.097656 115.195312 L 235.992188 115.195312 L 235.992188 110.835938 L 218.734375 110.835938 L 218.734375 71.34375 L 214.097656 71.34375 Z M 214.097656 93.269531 " fill-opacity="1" fill-rule="nonzero"/></g><g clip-path="url(#8297ed3cf1)"><path fill="#0e74bb" d="M 37.476562 71.726562 C 34.425781 72.214844 31.371094 73.40625 28.949219 75.074219 C 24.699219 78.011719 21.429688 82.753906 20.089844 87.949219 C 19.511719 90.230469 19.417969 91 19.433594 93.910156 C 19.433594 96.246094 19.484375 96.859375 19.714844 97.9375 C 20.335938 100.707031 21.710938 104.015625 23.15625 106.144531 C 24.996094 108.902344 27.996094 111.582031 31.074219 113.246094 C 35.636719 115.710938 41.355469 116.121094 46.738281 114.363281 C 51.953125 112.65625 56.101562 109.054688 58.636719 104.039062 C 59.527344 102.269531 59.925781 101.078125 59.925781 100.207031 L 59.925781 99.460938 L 58.058594 98.785156 C 57.027344 98.410156 56.152344 98.128906 56.125 98.167969 C 56.101562 98.195312 55.855469 98.820312 55.613281 99.550781 C 54.683594 102.207031 53.34375 104.335938 51.375 106.285156 C 49.390625 108.246094 46.828125 109.796875 44.472656 110.4375 C 41.648438 111.222656 38.082031 111.042969 35.199219 109.976562 C 29.570312 107.898438 25.628906 103.207031 24.289062 96.988281 C 24.109375 96.140625 24.054688 95.347656 24.054688 93.398438 C 24.070312 91.152344 24.109375 90.742188 24.402344 89.460938 C 25.628906 84.320312 28.691406 80.203125 33.007812 77.90625 C 37.089844 75.726562 42.320312 75.546875 46.671875 77.421875 C 50.292969 78.984375 53.679688 82.625 55.367188 86.769531 C 55.636719 87.433594 55.832031 87.703125 56.125 87.859375 C 56.730469 88.164062 57.683594 88.113281 58.445312 87.71875 C 58.804688 87.539062 59.242188 87.320312 59.449219 87.253906 C 59.773438 87.128906 59.796875 87.074219 59.796875 86.382812 C 59.796875 84.089844 56.667969 79.214844 53.421875 76.457031 C 50.613281 74.074219 47.871094 72.703125 44.445312 71.96875 C 43.078125 71.675781 38.765625 71.523438 37.476562 71.726562 Z M 37.476562 71.726562 " fill-opacity="1" fill-rule="nonzero"/></g><g clip-path="url(#836c77514f)"><path fill="#0e74bb" d="M 107.066406 93.398438 L 107.066406 115.195312 L 111.703125 115.195312 L 111.703125 76.214844 L 117.574219 76.214844 C 122.355469 76.214844 123.589844 76.253906 124.195312 76.40625 C 127.417969 77.242188 130.699219 80.113281 132.375 83.574219 C 133.148438 85.179688 133.277344 85.871094 133.261719 88.398438 C 133.261719 91 133.121094 91.652344 132.246094 93.386719 C 129.992188 97.835938 126.398438 100.21875 121.222656 100.695312 C 120.410156 100.769531 119.714844 100.835938 119.664062 100.835938 C 119.597656 100.835938 119.558594 101.785156 119.558594 102.9375 L 119.558594 105.039062 L 120.242188 105.144531 C 121.453125 105.308594 123.292969 105.234375 124.453125 104.964844 C 129.414062 103.785156 133.25 100.910156 135.8125 96.476562 C 137.308594 93.886719 138.121094 90 137.835938 86.753906 C 137.476562 82.652344 135.839844 79.191406 132.980469 76.445312 C 130.496094 74.074219 127.53125 72.484375 124.480469 71.855469 C 123.269531 71.613281 122.726562 71.597656 115.128906 71.597656 L 107.066406 71.597656 Z M 107.066406 93.398438 " fill-opacity="1" fill-rule="nonzero"/></g><g clip-path="url(#13a6f3d80b)"><path fill="#0e74bb" d="M 302.835938 71.6875 C 297.878906 72.175781 294.015625 73.945312 290.652344 77.292969 C 287.820312 80.113281 286.171875 82.78125 284.949219 86.484375 C 282.886719 92.742188 283.75 99.976562 287.253906 105.644531 C 289.699219 109.617188 293.691406 112.835938 298.058594 114.351562 C 300.492188 115.195312 301.652344 115.375 304.707031 115.375 C 307.074219 115.390625 307.578125 115.351562 308.75 115.09375 C 314.894531 113.722656 319.941406 109.8125 323.160156 103.914062 C 324.140625 102.144531 324.386719 101.308594 324.398438 99.875 C 324.410156 99.167969 324.359375 98.371094 324.308594 98.105469 L 324.207031 97.628906 L 308.761719 97.628906 L 308.761719 101.988281 L 313.863281 101.988281 C 318.035156 101.988281 318.949219 102.015625 318.898438 102.15625 C 318.667969 102.769531 316.980469 105.105469 316.144531 105.976562 C 314.363281 107.835938 312.292969 109.117188 309.664062 109.992188 C 305.027344 111.527344 299.875 110.925781 296.113281 108.386719 C 293.820312 106.835938 291.554688 104.257812 290.292969 101.757812 C 289.738281 100.667969 289.042969 98.640625 288.734375 97.246094 C 288.453125 95.949219 288.335938 92.203125 288.542969 90.820312 C 288.902344 88.332031 289.648438 86.253906 290.886719 84.304688 C 292.339844 81.984375 294.296875 79.804688 295.753906 78.882812 C 296.707031 78.28125 298.742188 77.265625 299.617188 76.957031 C 301.1875 76.421875 302.734375 76.203125 305.089844 76.203125 C 306.597656 76.203125 307.101562 76.253906 308.15625 76.523438 C 313.4375 77.867188 317.921875 81.855469 319.851562 86.949219 C 320.136719 87.703125 320.175781 87.742188 320.777344 87.933594 C 321.550781 88.191406 321.566406 88.191406 322.375 87.949219 C 322.75 87.832031 323.265625 87.539062 323.625 87.230469 C 324.140625 86.78125 324.21875 86.640625 324.21875 86.203125 C 324.21875 84.84375 322.632812 81.714844 320.675781 79.226562 C 317.390625 75.035156 312.316406 72.316406 306.675781 71.726562 C 305.53125 71.613281 303.804688 71.585938 302.835938 71.6875 Z M 302.835938 71.6875 " fill-opacity="1" fill-rule="nonzero"/></g></svg>