<svg xmlns="http://www.w3.org/2000/svg" xmlns:xlink="http://www.w3.org/1999/xlink" width="500" zoomAndPan="magnify" viewBox="0 0 375 187.499995" height="250" preserveAspectRatio="xMidYMid meet" version="1.0"><defs><clipPath id="30c2659873"><path d="M 52 52.523438 L 69 52.523438 L 69 69 L 52 69 Z M 52 52.523438 " clip-rule="nonzero"/></clipPath><clipPath id="e3a7e23f0c"><path d="M 83 52.523438 L 100 52.523438 L 100 69 L 83 69 Z M 83 52.523438 " clip-rule="nonzero"/></clipPath></defs><path fill="#000000" d="M 36.601562 83.996094 L 20.828125 83.996094 L 20.828125 99.730469 L 36.601562 99.730469 Z M 36.601562 83.996094 " fill-opacity="1" fill-rule="nonzero"/><path fill="#000000" d="M 52.375 68.269531 L 36.601562 68.269531 L 36.601562 84.003906 L 52.375 84.003906 Z M 52.375 68.269531 " fill-opacity="1" fill-rule="nonzero"/><path fill="#000000" d="M 52.375 99.730469 L 36.601562 99.730469 L 36.601562 115.46875 L 52.375 115.46875 Z M 52.375 99.730469 " fill-opacity="1" fill-rule="nonzero"/><g clip-path="url(#30c2659873)"><path fill="#000000" d="M 68.140625 52.523438 L 52.367188 52.523438 L 52.367188 68.257812 L 68.140625 68.257812 Z M 68.140625 52.523438 " fill-opacity="1" fill-rule="nonzero"/></g><path fill="#000000" d="M 68.140625 115.460938 L 52.367188 115.460938 L 52.367188 131.195312 L 68.140625 131.195312 Z M 68.140625 115.460938 " fill-opacity="1" fill-rule="nonzero"/><path fill="#000000" d="M 115.453125 99.730469 L 131.226562 99.730469 L 131.226562 83.996094 L 115.453125 83.996094 Z M 115.453125 99.730469 " fill-opacity="1" fill-rule="nonzero"/><path fill="#000000" d="M 99.683594 115.460938 L 115.453125 115.460938 L 115.453125 99.726562 L 99.683594 99.726562 Z M 99.683594 115.460938 " fill-opacity="1" fill-rule="nonzero"/><path fill="#000000" d="M 99.683594 83.996094 L 115.457031 83.996094 L 115.457031 68.261719 L 99.683594 68.261719 Z M 99.683594 83.996094 " fill-opacity="1" fill-rule="nonzero"/><g clip-path="url(#e3a7e23f0c)"><path fill="#000000" d="M 99.691406 52.523438 L 83.917969 52.523438 L 83.917969 68.257812 L 99.691406 68.257812 Z M 99.691406 52.523438 " fill-opacity="1" fill-rule="nonzero"/></g><path fill="#000000" d="M 99.691406 115.460938 L 83.917969 115.460938 L 83.917969 131.195312 L 99.691406 131.195312 Z M 99.691406 115.460938 " fill-opacity="1" fill-rule="nonzero"/><path fill="#000000" d="M 162.777344 92.445312 C 162.777344 82.757812 169.527344 75.898438 178.671875 75.898438 C 185.78125 75.898438 192.226562 79.863281 193.300781 87.472656 L 186.871094 87.472656 C 186.113281 84.203125 183.085938 81.496094 178.671875 81.496094 C 173.109375 81.496094 169.148438 86.15625 169.148438 92.445312 C 169.148438 98.484375 172.804688 103.015625 178.730469 103.015625 C 183.082031 103.015625 185.796875 100.875 186.992188 97.480469 L 193.425781 97.480469 C 192.289062 104.265625 186.550781 108.613281 178.730469 108.613281 C 169.023438 108.613281 162.777344 101.691406 162.777344 92.445312 Z M 162.777344 92.445312 " fill-opacity="1" fill-rule="nonzero"/><path fill="#000000" d="M 197.648438 92.257812 C 197.648438 82.699219 204.449219 75.914062 213.722656 75.914062 C 222.996094 75.914062 229.929688 82.769531 229.929688 92.257812 C 229.929688 101.746094 222.992188 108.601562 213.722656 108.601562 C 204.523438 108.617188 197.648438 101.695312 197.648438 92.257812 Z M 223.5625 92.257812 C 223.5625 86.347656 219.59375 81.5 213.726562 81.5 C 207.863281 81.5 204.019531 86.347656 204.019531 92.257812 C 204.019531 98.117188 207.863281 103.019531 213.726562 103.019531 C 219.59375 103.019531 223.566406 98.109375 223.566406 92.257812 Z M 223.5625 92.257812 " fill-opacity="1" fill-rule="nonzero"/><path fill="#000000" d="M 265.570312 63.316406 L 265.570312 107.984375 L 260.332031 107.984375 L 259.769531 103.769531 L 259.324219 103.769531 C 257.75 105.90625 254.65625 108.613281 249.363281 108.613281 C 240.910156 108.613281 234.730469 102.136719 234.730469 92.191406 C 234.730469 82.125 241.101562 75.898438 249.363281 75.898438 C 254.21875 75.898438 257.496094 78.101562 259.136719 80.175781 L 259.136719 63.316406 Z M 259.136719 92.191406 C 259.136719 85.839844 255.667969 81.496094 250.308594 81.496094 C 244.886719 81.496094 241.164062 85.839844 241.164062 92.191406 C 241.164062 98.667969 244.875 103.015625 250.308594 103.015625 C 255.667969 103.015625 259.136719 98.671875 259.136719 92.191406 Z M 259.136719 92.191406 " fill-opacity="1" fill-rule="nonzero"/><path fill="#000000" d="M 301.386719 93.882812 L 278.050781 93.882812 C 278.359375 99.480469 281.761719 103.382812 287.324219 103.382812 C 291.296875 103.382812 294.199219 101.746094 295.210938 98.539062 L 301.390625 98.539062 C 300.066406 104.828125 294.769531 108.601562 287.328125 108.601562 C 278.246094 108.601562 271.75 102.25 271.75 92.566406 C 271.75 82.3125 278.5 75.898438 287.074219 75.898438 C 294.769531 75.898438 301.519531 80.992188 301.519531 91.8125 C 301.511719 92.4375 301.449219 93.066406 301.386719 93.882812 Z M 278.113281 89.351562 L 295.269531 89.351562 C 295.207031 84.507812 291.925781 81.113281 287.070312 81.113281 C 282.089844 81.113281 278.742188 84.761719 278.113281 89.351562 Z M 278.113281 89.351562 " fill-opacity="1" fill-rule="nonzero"/><path fill="#000000" d="M 307.960938 63.316406 L 314.394531 63.316406 L 314.394531 107.984375 L 307.960938 107.984375 Z M 307.960938 63.316406 " fill-opacity="1" fill-rule="nonzero"/><path fill="#000000" d="M 321.183594 120.5 L 321.183594 115.65625 C 322.28125 115.914062 323.398438 116.0625 324.523438 116.09375 C 327.425781 116.09375 330.011719 114.898438 331.398438 111.566406 L 332.785156 107.980469 L 330.703125 107.980469 L 318.535156 76.523438 L 325.21875 76.523438 L 334.550781 101.371094 L 335.058594 101.371094 L 343.816406 76.523438 L 350.5 76.523438 L 337.382812 112.507812 C 336.5 115.089844 334.230469 121.191406 325.90625 121.191406 C 324.308594 121.167969 322.71875 120.933594 321.183594 120.5 Z M 321.183594 120.5 " fill-opacity="1" fill-rule="nonzero"/></svg>