<svg xmlns="http://www.w3.org/2000/svg" xmlns:xlink="http://www.w3.org/1999/xlink" width="500" zoomAndPan="magnify" viewBox="0 0 375 187.499995" height="250" preserveAspectRatio="xMidYMid meet" version="1.0"><path fill="#000000" d="M 89.03125 139.640625 C 81.570312 139.640625 75.847656 137.769531 71.820312 134.074219 C 67.835938 130.378906 65.84375 125.070312 65.84375 118.230469 C 65.84375 111.519531 67.710938 106.167969 71.398438 102.175781 C 75.128906 98.183594 80.300781 96.1875 86.996094 96.1875 C 93.058594 96.1875 97.636719 97.886719 100.6875 101.285156 C 103.738281 104.683594 105.265625 109.523438 105.265625 115.851562 L 105.265625 120.441406 L 78.265625 120.441406 C 78.390625 122.351562 78.773438 123.921875 79.410156 125.199219 C 80.085938 126.472656 80.933594 127.492188 81.996094 128.257812 C 83.054688 129.019531 84.285156 129.574219 85.683594 129.871094 C 87.082031 130.210938 88.648438 130.335938 90.300781 130.335938 C 91.742188 130.335938 93.140625 130.167969 94.542969 129.871094 C 95.941406 129.53125 97.210938 129.105469 98.355469 128.554688 C 99.375 128.085938 100.304688 127.578125 101.152344 127.066406 C 102 126.515625 102.722656 126.046875 103.273438 125.621094 L 104.585938 125.621094 L 104.585938 136.199219 C 103.570312 136.625 102.636719 137.007812 101.832031 137.347656 C 100.984375 137.6875 99.839844 138.066406 98.398438 138.40625 C 97.042969 138.789062 95.6875 139.046875 94.246094 139.257812 C 92.804688 139.511719 91.066406 139.640625 89.03125 139.640625 Z M 93.140625 112.710938 C 93.058594 109.992188 92.464844 107.953125 91.320312 106.507812 C 90.175781 105.105469 88.4375 104.386719 86.0625 104.386719 C 83.691406 104.386719 81.78125 105.148438 80.425781 106.636719 C 79.070312 108.121094 78.308594 110.160156 78.179688 112.710938 Z M 93.140625 112.710938 " fill-opacity="1" fill-rule="nonzero"/><path fill="#000000" d="M 150.914062 138.535156 L 138.496094 138.535156 L 138.496094 118.148438 C 138.496094 116.492188 138.410156 114.832031 138.285156 113.175781 C 138.15625 111.519531 137.902344 110.332031 137.5625 109.523438 C 137.140625 108.589844 136.546875 107.953125 135.742188 107.527344 C 134.9375 107.144531 133.875 106.933594 132.519531 106.933594 C 131.503906 106.933594 130.484375 107.144531 129.46875 107.527344 C 128.449219 107.910156 127.347656 108.546875 126.160156 109.398438 L 126.160156 138.535156 L 113.828125 138.535156 L 113.828125 97.460938 L 126.160156 97.460938 L 126.160156 102.007812 C 128.195312 100.222656 130.144531 98.820312 132.054688 97.84375 C 133.960938 96.867188 136.082031 96.355469 138.410156 96.355469 C 142.4375 96.355469 145.53125 97.675781 147.695312 100.308594 C 149.855469 102.941406 150.914062 106.804688 150.914062 111.816406 Z M 150.914062 138.535156 " fill-opacity="1" fill-rule="nonzero"/><path fill="#000000" d="M 198.433594 118.019531 C 198.433594 124.773438 196.652344 130.125 193.089844 133.992188 C 189.53125 137.898438 184.488281 139.808594 177.957031 139.808594 C 171.515625 139.808594 166.472656 137.855469 162.910156 133.992188 C 159.351562 130.082031 157.527344 124.773438 157.527344 118.019531 C 157.527344 111.179688 159.308594 105.828125 162.910156 101.964844 C 166.515625 98.097656 171.515625 96.144531 177.957031 96.144531 C 184.445312 96.144531 189.488281 98.097656 193.046875 101.964844 C 196.652344 105.914062 198.433594 111.222656 198.433594 118.019531 Z M 185.757812 118.105469 C 185.757812 115.683594 185.546875 113.644531 185.164062 112.03125 C 184.78125 110.417969 184.230469 109.101562 183.554688 108.121094 C 182.832031 107.101562 181.984375 106.382812 181.09375 106 C 180.164062 105.617188 179.144531 105.40625 177.957031 105.40625 C 176.855469 105.40625 175.839844 105.574219 174.949219 105.957031 C 174.058594 106.296875 173.253906 106.976562 172.492188 107.996094 C 171.769531 108.929688 171.21875 110.246094 170.796875 111.902344 C 170.371094 113.558594 170.160156 115.640625 170.160156 118.148438 C 170.160156 120.652344 170.371094 122.691406 170.753906 124.222656 C 171.132812 125.792969 171.6875 127.023438 172.320312 127.917969 C 172.957031 128.851562 173.804688 129.574219 174.78125 129.996094 C 175.753906 130.421875 176.855469 130.636719 178.042969 130.636719 C 179.019531 130.636719 180.035156 130.421875 181.054688 129.996094 C 182.070312 129.574219 182.875 128.894531 183.511719 128.042969 C 184.230469 126.980469 184.78125 125.75 185.164062 124.261719 C 185.589844 122.734375 185.757812 120.695312 185.757812 118.105469 Z M 185.757812 118.105469 " fill-opacity="1" fill-rule="nonzero"/><path fill="#000000" d="M 231.789062 75.714844 L 231.789062 99.414062 C 230.011719 98.480469 227.171875 97.078125 225.601562 96.65625 C 224.246094 96.316406 222.59375 95.976562 220.515625 95.976562 C 218.226562 95.976562 216.066406 96.484375 214.03125 97.546875 C 211.996094 98.566406 210.257812 99.96875 208.816406 101.75 C 208.476562 102.175781 208.136719 102.644531 207.839844 103.066406 C 205 106.804688 203.5625 111.691406 203.5625 117.808594 C 203.5625 124.5625 205.339844 129.871094 208.945312 133.777344 C 212.546875 137.6875 217.546875 139.597656 224.035156 139.597656 C 230.5625 139.597656 235.5625 137.644531 239.125 133.777344 C 242.554688 129.996094 244.378906 124.902344 244.507812 118.402344 L 244.507812 75.714844 Z M 231.28125 124.050781 C 230.898438 125.539062 230.347656 126.769531 229.628906 127.832031 C 229.035156 128.722656 228.1875 129.359375 227.171875 129.785156 C 226.152344 130.210938 225.136719 130.464844 224.160156 130.464844 C 222.972656 130.464844 221.871094 130.253906 220.898438 129.785156 C 219.921875 129.359375 219.074219 128.636719 218.4375 127.703125 C 217.800781 126.769531 217.292969 125.539062 216.914062 124.007812 C 216.53125 122.480469 216.320312 120.441406 216.320312 117.933594 C 216.320312 115.429688 216.53125 113.347656 216.953125 111.691406 C 217.378906 110.035156 217.929688 108.71875 218.648438 107.78125 C 219.414062 106.761719 220.21875 106.082031 221.109375 105.746094 C 222 105.40625 222.972656 105.234375 224.117188 105.234375 C 225.304688 105.234375 226.324219 105.445312 227.253906 105.828125 C 228.1875 106.210938 228.992188 106.933594 229.714844 107.953125 C 230.390625 108.929688 230.941406 110.246094 231.324219 111.859375 C 231.707031 113.476562 231.917969 115.511719 231.917969 117.933594 C 231.832031 120.527344 231.621094 122.566406 231.28125 124.050781 Z M 231.28125 124.050781 " fill-opacity="1" fill-rule="nonzero"/><path fill="#000000" d="M 46.730469 75.714844 L 46.730469 99.414062 C 44.949219 98.480469 42.109375 97.078125 40.539062 96.65625 C 39.183594 96.316406 37.53125 95.976562 35.453125 95.976562 C 33.164062 95.976562 31.003906 96.484375 28.96875 97.546875 C 26.933594 98.566406 25.195312 99.96875 23.753906 101.75 C 23.414062 102.175781 23.078125 102.644531 22.78125 103.066406 C 19.941406 106.847656 18.5 111.734375 18.5 117.851562 C 18.5 124.601562 20.28125 129.914062 23.882812 133.820312 C 27.484375 137.726562 32.488281 139.640625 38.972656 139.640625 C 45.5 139.640625 50.5 137.6875 54.0625 133.820312 C 57.496094 130.039062 59.316406 124.941406 59.445312 118.445312 L 59.445312 75.714844 Z M 46.179688 124.050781 C 45.796875 125.539062 45.246094 126.769531 44.523438 127.832031 C 43.929688 128.722656 43.082031 129.359375 42.066406 129.785156 C 41.050781 130.210938 40.03125 130.464844 39.058594 130.464844 C 37.871094 130.464844 36.769531 130.253906 35.792969 129.785156 C 34.816406 129.359375 33.96875 128.636719 33.335938 127.703125 C 32.699219 126.769531 32.191406 125.539062 31.765625 124.007812 C 31.34375 122.480469 31.171875 120.441406 31.171875 117.933594 C 31.171875 115.429688 31.382812 113.347656 31.808594 111.691406 C 32.234375 110.035156 32.785156 108.71875 33.503906 107.78125 C 34.265625 106.761719 35.074219 106.082031 35.960938 105.746094 C 36.851562 105.40625 37.828125 105.234375 38.972656 105.234375 C 40.160156 105.234375 41.175781 105.445312 42.109375 105.828125 C 43.042969 106.210938 43.847656 106.933594 44.566406 107.953125 C 45.246094 108.929688 45.796875 110.246094 46.179688 111.859375 C 46.558594 113.476562 46.769531 115.511719 46.769531 117.933594 C 46.730469 120.527344 46.558594 122.566406 46.179688 124.050781 Z M 46.179688 124.050781 " fill-opacity="1" fill-rule="nonzero"/><path fill="#000000" d="M 292.023438 117.851562 C 292.023438 124.601562 290.242188 129.914062 286.679688 133.820312 C 283.121094 137.726562 278.078125 139.640625 271.550781 139.640625 C 265.105469 139.640625 260.0625 137.6875 256.460938 133.820312 C 252.855469 129.914062 251.078125 124.601562 251.078125 117.851562 C 251.078125 111.011719 252.855469 105.660156 256.460938 101.792969 C 260.0625 97.929688 265.0625 95.976562 271.550781 95.976562 C 278.035156 95.976562 283.078125 97.929688 286.640625 101.792969 C 290.242188 105.703125 292.023438 111.054688 292.023438 117.851562 Z M 279.390625 117.890625 C 279.390625 115.472656 279.179688 113.433594 278.796875 111.816406 C 278.414062 110.203125 277.863281 108.886719 277.1875 107.910156 C 276.464844 106.890625 275.617188 106.167969 274.726562 105.785156 C 273.796875 105.40625 272.777344 105.191406 271.589844 105.191406 C 270.488281 105.191406 269.472656 105.363281 268.582031 105.746094 C 267.691406 106.082031 266.84375 106.761719 266.125 107.78125 C 265.402344 108.71875 264.851562 110.035156 264.429688 111.691406 C 264.003906 113.347656 263.792969 115.429688 263.792969 117.933594 C 263.792969 120.441406 264.003906 122.480469 264.386719 124.007812 C 264.765625 125.582031 265.320312 126.8125 265.953125 127.703125 C 266.589844 128.636719 267.4375 129.359375 268.414062 129.785156 C 269.386719 130.210938 270.488281 130.421875 271.675781 130.421875 C 272.652344 130.421875 273.667969 130.210938 274.6875 129.785156 C 275.703125 129.359375 276.507812 128.679688 277.144531 127.789062 C 277.863281 126.726562 278.414062 125.496094 278.796875 124.007812 C 279.179688 122.566406 279.390625 120.527344 279.390625 117.890625 Z M 279.390625 117.890625 " fill-opacity="1" fill-rule="nonzero"/><path fill="#e94734" d="M 302.875 86.035156 L 309.230469 96.910156 L 298.210938 103.195312 L 291.851562 92.320312 Z M 302.875 86.035156 " fill-opacity="1" fill-rule="nonzero"/><path fill="#e94734" d="M 316.226562 100.902344 L 328.941406 100.902344 L 328.941406 113.515625 L 316.226562 113.515625 Z M 316.226562 100.902344 " fill-opacity="1" fill-rule="nonzero"/><path fill="#e94734" d="M 335.976562 96.910156 L 342.335938 86.035156 L 353.355469 92.320312 L 347 103.195312 Z M 335.976562 96.910156 " fill-opacity="1" fill-rule="nonzero"/><path fill="#e94734" d="M 342.335938 78.007812 L 335.976562 67.089844 L 347 60.804688 L 353.355469 71.722656 Z M 342.335938 78.007812 " fill-opacity="1" fill-rule="nonzero"/><path fill="#231f20" d="M 316.226562 75.714844 L 328.941406 75.714844 L 328.941406 88.328125 L 316.226562 88.328125 Z M 316.226562 75.714844 " fill-opacity="1" fill-rule="nonzero"/><path fill="#e94734" d="M 316.226562 50.527344 L 328.941406 50.527344 L 328.941406 63.140625 L 316.226562 63.140625 Z M 316.226562 50.527344 " fill-opacity="1" fill-rule="nonzero"/><path fill="#e94734" d="M 309.230469 67.089844 L 302.875 78.007812 L 291.851562 71.722656 L 298.210938 60.804688 Z M 309.230469 67.089844 " fill-opacity="1" fill-rule="nonzero"/></svg>