<svg xmlns="http://www.w3.org/2000/svg" xmlns:xlink="http://www.w3.org/1999/xlink" width="500" zoomAndPan="magnify" viewBox="0 0 375 187.499995" height="250" preserveAspectRatio="xMidYMid meet" version="1.0"><path fill="#2f4050" d="M 353.855469 98.519531 L 353.855469 81.257812 C 353.855469 79.914062 352.710938 79.597656 351.433594 79.203125 C 349.023438 78.480469 346.558594 78.121094 344.042969 78.125 C 342.367188 78.121094 340.707031 78.273438 339.058594 78.570312 C 337.90625 78.734375 336.800781 79.0625 335.746094 79.554688 C 334.6875 80.050781 333.730469 80.6875 332.867188 81.46875 C 332.003906 82.25 331.273438 83.144531 330.679688 84.144531 C 330.085938 85.144531 329.648438 86.210938 329.375 87.34375 C 328.328125 91.386719 328.363281 95.421875 329.476562 99.445312 C 329.726562 100.390625 330.097656 101.289062 330.582031 102.140625 C 331.066406 102.992188 331.648438 103.769531 332.335938 104.46875 C 333.019531 105.167969 333.785156 105.769531 334.625 106.273438 C 335.464844 106.777344 336.355469 107.164062 337.296875 107.4375 C 338.515625 107.835938 339.761719 108.078125 341.035156 108.167969 C 341.75 108.167969 342.546875 108.167969 343.492188 108.167969 C 344.617188 108.195312 345.722656 108.078125 346.816406 107.820312 C 348.011719 107.519531 348.574219 107.023438 348.574219 107.820312 C 348.574219 110.171875 346.21875 113.089844 340.273438 112.628906 C 339.058594 112.527344 338.609375 112.628906 338.609375 113.40625 L 338.609375 116.140625 C 338.609375 117.003906 339.359375 117.070312 340.273438 117.171875 C 348.0625 118.03125 353.855469 112.363281 353.855469 106.144531 Z M 348.625 102 C 348.625 103.191406 348.527344 103.742188 347.363281 104.003906 C 345.960938 104.308594 344.546875 104.449219 343.113281 104.421875 C 342.472656 104.421875 341.835938 104.386719 341.203125 104.320312 C 340.539062 104.195312 339.898438 103.992188 339.285156 103.710938 C 338.675781 103.425781 338.105469 103.070312 337.582031 102.644531 C 337.058594 102.21875 336.597656 101.734375 336.195312 101.195312 C 335.792969 100.652344 335.460938 100.070312 335.207031 99.445312 C 333.957031 96.5 333.617188 93.457031 334.191406 90.308594 C 334.328125 89.5 334.550781 88.71875 334.855469 87.957031 C 335.101562 87.179688 335.457031 86.460938 335.925781 85.796875 C 336.394531 85.136719 336.957031 84.558594 337.609375 84.074219 C 338.257812 83.585938 338.96875 83.210938 339.738281 82.949219 C 340.511719 82.6875 341.300781 82.546875 342.113281 82.535156 C 343.722656 82.417969 345.308594 82.535156 346.882812 82.882812 C 347.8125 83.097656 348.542969 83.328125 348.542969 84.191406 L 348.542969 102 Z M 348.625 102 " fill-opacity="1" fill-rule="nonzero"/><path fill="#2f4050" d="M 266.449219 99.066406 C 266.347656 97.886719 265.984375 96.792969 265.363281 95.785156 C 264.738281 94.777344 263.921875 93.964844 262.910156 93.34375 C 261.863281 92.714844 260.757812 92.21875 259.589844 91.851562 C 257.148438 91.378906 254.777344 90.667969 252.480469 89.714844 C 252.097656 89.445312 251.796875 89.105469 251.578125 88.691406 C 251.359375 88.28125 251.246094 87.84375 251.234375 87.375 C 251.203125 86.933594 251.246094 86.496094 251.363281 86.070312 C 251.480469 85.640625 251.667969 85.246094 251.925781 84.882812 C 252.179688 84.519531 252.488281 84.210938 252.855469 83.957031 C 253.21875 83.699219 253.613281 83.515625 254.042969 83.394531 C 255.742188 82.996094 257.402344 83.117188 259.023438 83.761719 C 261.035156 84.375 262.148438 85.003906 263.011719 85.285156 C 263.558594 85.46875 264.023438 85.484375 264.222656 84.824219 C 264.324219 84.472656 265.019531 82.582031 265.136719 82.234375 C 265.335938 81.574219 265.136719 81.324219 264.390625 81.007812 C 261.726562 79.695312 258.90625 79.007812 255.933594 78.953125 C 255.191406 78.945312 254.449219 78.996094 253.710938 79.101562 C 251.683594 79.433594 249.945312 80.324219 248.496094 81.773438 C 247.894531 82.464844 247.421875 83.234375 247.078125 84.082031 C 246.734375 84.929688 246.535156 85.808594 246.484375 86.722656 C 246.429688 87.632812 246.527344 88.53125 246.773438 89.414062 C 247.015625 90.292969 247.398438 91.113281 247.914062 91.867188 C 249.074219 93.300781 250.535156 94.285156 252.296875 94.820312 C 254.972656 95.664062 258.441406 96.015625 259.621094 96.828125 C 259.980469 96.988281 260.296875 97.210938 260.578125 97.484375 C 260.859375 97.761719 261.082031 98.078125 261.25 98.433594 C 261.414062 98.789062 261.515625 99.160156 261.550781 99.550781 C 261.585938 99.941406 261.550781 100.328125 261.449219 100.707031 C 261.359375 101.195312 261.15625 101.636719 260.84375 102.027344 C 260.53125 102.417969 260.148438 102.714844 259.6875 102.910156 C 259.082031 103.167969 258.457031 103.359375 257.8125 103.492188 C 257.175781 103.609375 256.53125 103.675781 255.886719 103.691406 C 254.464844 103.664062 253.074219 103.441406 251.71875 103.027344 C 251.019531 102.828125 248.164062 101.816406 247.929688 101.75 C 247.234375 101.535156 247.101562 101.933594 246.917969 102.429688 L 246.035156 105.183594 C 245.804688 105.914062 246.035156 106.09375 247.183594 106.527344 C 249.882812 107.648438 252.695312 108.25 255.621094 108.332031 C 257.335938 108.351562 259.023438 108.148438 260.683594 107.71875 C 261.8125 107.480469 262.816406 106.992188 263.699219 106.25 C 264.582031 105.511719 265.238281 104.609375 265.667969 103.542969 C 266.308594 102.113281 266.566406 100.621094 266.449219 99.066406 Z M 266.449219 99.066406 " fill-opacity="1" fill-rule="nonzero"/><path fill="#2f4050" d="M 117.140625 70.996094 L 120.660156 70.996094 C 120.90625 70.996094 121.113281 71.082031 121.285156 71.25 C 121.457031 71.421875 121.542969 71.628906 121.542969 71.871094 L 121.542969 75.386719 C 121.542969 75.628906 121.457031 75.835938 121.285156 76.007812 C 121.113281 76.179688 120.90625 76.265625 120.660156 76.265625 L 117.140625 76.265625 C 116.898438 76.265625 116.691406 76.179688 116.519531 76.007812 C 116.347656 75.835938 116.261719 75.628906 116.261719 75.386719 L 116.261719 71.871094 C 116.261719 71.628906 116.347656 71.421875 116.519531 71.25 C 116.691406 71.082031 116.898438 70.996094 117.140625 70.996094 Z M 117.140625 70.996094 " fill-opacity="1" fill-rule="nonzero"/><path fill="#2f4050" d="M 117.140625 80.429688 L 120.660156 80.429688 C 120.90625 80.429688 121.113281 80.515625 121.285156 80.6875 C 121.457031 80.859375 121.542969 81.066406 121.542969 81.308594 L 121.542969 107.089844 C 121.542969 107.332031 121.457031 107.539062 121.285156 107.710938 C 121.113281 107.882812 120.90625 107.96875 120.660156 107.96875 L 117.140625 107.96875 C 116.898438 107.96875 116.691406 107.882812 116.519531 107.710938 C 116.347656 107.539062 116.261719 107.332031 116.261719 107.089844 L 116.261719 81.308594 C 116.261719 81.066406 116.347656 80.859375 116.519531 80.6875 C 116.691406 80.515625 116.898438 80.429688 117.140625 80.429688 Z M 117.140625 80.429688 " fill-opacity="1" fill-rule="nonzero"/><path fill="#2f4050" d="M 289.914062 70.996094 L 293.4375 70.996094 C 293.679688 70.996094 293.886719 71.082031 294.058594 71.25 C 294.230469 71.421875 294.316406 71.628906 294.316406 71.871094 L 294.316406 75.386719 C 294.316406 75.628906 294.230469 75.835938 294.058594 76.007812 C 293.886719 76.179688 293.679688 76.265625 293.4375 76.265625 L 289.914062 76.265625 C 289.671875 76.265625 289.464844 76.179688 289.292969 76.007812 C 289.121094 75.835938 289.035156 75.628906 289.035156 75.386719 L 289.035156 71.871094 C 289.035156 71.628906 289.121094 71.421875 289.292969 71.25 C 289.464844 71.082031 289.671875 70.996094 289.914062 70.996094 Z M 289.914062 70.996094 " fill-opacity="1" fill-rule="nonzero"/><path fill="#2f4050" d="M 289.914062 80.363281 L 293.4375 80.363281 C 293.679688 80.363281 293.886719 80.449219 294.058594 80.621094 C 294.230469 80.792969 294.316406 81 294.316406 81.242188 L 294.316406 107.023438 C 294.316406 107.265625 294.230469 107.472656 294.058594 107.644531 C 293.886719 107.816406 293.679688 107.902344 293.4375 107.902344 L 289.914062 107.902344 C 289.671875 107.902344 289.464844 107.816406 289.292969 107.644531 C 289.121094 107.472656 289.035156 107.265625 289.035156 107.023438 L 289.035156 81.242188 C 289.035156 81 289.121094 80.792969 289.292969 80.621094 C 289.464844 80.449219 289.671875 80.363281 289.914062 80.363281 Z M 289.914062 80.363281 " fill-opacity="1" fill-rule="nonzero"/><path fill="#2f4050" d="M 228.945312 79.484375 C 221.488281 79.484375 215.445312 84.457031 215.445312 93.84375 C 215.445312 103.226562 221.488281 108.183594 228.945312 108.183594 C 236.402344 108.183594 242.433594 103.507812 242.433594 93.84375 C 242.433594 84.757812 236.570312 79.484375 228.945312 79.484375 Z M 228.945312 104.355469 C 224.246094 104.355469 221.023438 100.058594 221.023438 93.910156 C 221.023438 87.441406 224.246094 83.445312 228.945312 83.445312 C 233.648438 83.445312 236.871094 87.441406 236.871094 93.910156 C 236.871094 100.605469 233.648438 104.289062 228.945312 104.289062 Z M 228.945312 104.355469 " fill-opacity="1" fill-rule="nonzero"/><path fill="#2f4050" d="M 211.609375 94.753906 C 211.609375 93.316406 211.519531 91.886719 211.34375 90.460938 C 211.296875 89.792969 211.191406 89.140625 211.027344 88.492188 C 210.863281 87.847656 210.648438 87.21875 210.375 86.609375 C 210.101562 86 209.78125 85.421875 209.40625 84.871094 C 209.03125 84.316406 208.613281 83.800781 208.148438 83.324219 C 207.6875 82.84375 207.183594 82.410156 206.644531 82.015625 C 206.101562 81.625 205.53125 81.285156 204.933594 80.992188 C 204.332031 80.699219 203.710938 80.460938 203.070312 80.277344 C 202.429688 80.09375 201.777344 79.96875 201.113281 79.898438 C 199.660156 79.648438 198.199219 79.527344 196.726562 79.53125 C 195.234375 79.535156 193.75 79.65625 192.277344 79.898438 C 192.1875 79.90625 192.109375 79.882812 192.042969 79.824219 C 191.976562 79.761719 191.945312 79.6875 191.945312 79.597656 L 191.945312 71.921875 C 191.945312 71.679688 191.859375 71.472656 191.6875 71.300781 C 191.515625 71.128906 191.308594 71.042969 191.0625 71.042969 L 187.527344 71.042969 C 187.285156 71.042969 187.074219 71.128906 186.902344 71.300781 C 186.730469 71.472656 186.644531 71.679688 186.644531 71.921875 L 186.644531 107.074219 C 186.644531 107.316406 186.730469 107.523438 186.902344 107.695312 C 187.074219 107.867188 187.285156 107.953125 187.527344 107.953125 L 191.046875 107.953125 C 191.289062 107.953125 191.496094 107.867188 191.667969 107.695312 C 191.839844 107.523438 191.925781 107.316406 191.925781 107.074219 L 191.925781 85.519531 C 191.925781 84.523438 192.210938 84.359375 192.992188 84.207031 C 194.417969 83.964844 195.859375 83.835938 197.308594 83.828125 C 198.277344 83.816406 199.242188 83.890625 200.199219 84.042969 C 200.839844 84.226562 201.445312 84.488281 202.019531 84.828125 C 202.589844 85.164062 203.113281 85.570312 203.582031 86.042969 C 204.050781 86.511719 204.453125 87.035156 204.789062 87.609375 C 205.125 88.183594 205.382812 88.792969 205.5625 89.429688 C 206.101562 91.089844 206.347656 92.792969 206.292969 94.539062 C 206.292969 97.207031 206.292969 107.089844 206.292969 107.089844 C 206.292969 107.332031 206.378906 107.539062 206.550781 107.710938 C 206.722656 107.882812 206.929688 107.96875 207.175781 107.96875 L 210.777344 107.96875 C 211.019531 107.96875 211.226562 107.882812 211.398438 107.710938 C 211.570312 107.539062 211.65625 107.332031 211.65625 107.089844 Z M 211.609375 94.753906 " fill-opacity="1" fill-rule="nonzero"/><path fill="#2f4050" d="M 277.042969 85.320312 L 284.085938 85.320312 C 284.328125 85.320312 284.535156 85.234375 284.707031 85.0625 C 284.878906 84.890625 284.964844 84.683594 284.964844 84.441406 L 284.964844 81.242188 C 284.964844 81 284.878906 80.792969 284.707031 80.621094 C 284.535156 80.449219 284.328125 80.363281 284.085938 80.363281 L 277.042969 80.363281 C 276.800781 80.363281 276.59375 80.277344 276.421875 80.105469 C 276.25 79.933594 276.164062 79.726562 276.164062 79.484375 L 276.164062 71.871094 C 276.164062 71.628906 276.078125 71.421875 275.90625 71.25 C 275.734375 71.082031 275.527344 70.996094 275.285156 70.996094 L 271.761719 70.996094 C 271.519531 70.996094 271.3125 71.082031 271.140625 71.25 C 270.96875 71.421875 270.882812 71.628906 270.882812 71.871094 L 270.882812 90.394531 C 270.882812 96.675781 270.003906 107.96875 282.324219 107.96875 L 284.085938 107.96875 C 284.328125 107.96875 284.535156 107.882812 284.707031 107.710938 C 284.878906 107.539062 284.964844 107.332031 284.964844 107.089844 L 284.964844 103.773438 C 284.964844 103.53125 284.878906 103.324219 284.707031 103.152344 C 284.535156 102.980469 284.328125 102.894531 284.085938 102.894531 L 282.324219 102.894531 C 275.832031 102.894531 276.148438 98.070312 276.148438 91.621094 L 276.148438 86.199219 C 276.148438 85.953125 276.234375 85.742188 276.410156 85.570312 C 276.585938 85.398438 276.796875 85.316406 277.042969 85.320312 Z M 277.042969 85.320312 " fill-opacity="1" fill-rule="nonzero"/><path fill="#2f4050" d="M 153.097656 94.191406 C 153.097656 92.746094 153.007812 91.3125 152.832031 89.878906 C 152.050781 83.960938 148.515625 80.609375 142.601562 79.617188 C 141.148438 79.382812 139.6875 79.265625 138.21875 79.269531 C 135.277344 79.300781 132.386719 79.691406 129.546875 80.445312 C 128.320312 80.777344 128.167969 81.125 128.152344 82.320312 L 128.152344 106.972656 C 128.152344 107.214844 128.238281 107.421875 128.410156 107.59375 C 128.582031 107.765625 128.789062 107.851562 129.03125 107.851562 L 132.554688 107.851562 C 132.796875 107.851562 133.003906 107.765625 133.175781 107.59375 C 133.347656 107.421875 133.433594 107.214844 133.433594 106.972656 L 133.433594 85.070312 C 133.433594 84.058594 133.617188 83.84375 134.53125 83.746094 C 135.878906 83.492188 137.242188 83.359375 138.617188 83.347656 C 139.609375 83.339844 140.59375 83.417969 141.570312 83.578125 C 142.214844 83.734375 142.824219 83.964844 143.40625 84.28125 C 143.988281 84.59375 144.519531 84.976562 145 85.429688 C 145.480469 85.882812 145.894531 86.386719 146.242188 86.949219 C 146.589844 87.507812 146.859375 88.105469 147.050781 88.734375 C 147.601562 90.429688 147.847656 92.164062 147.800781 93.941406 C 147.800781 96.675781 147.800781 103.808594 147.800781 103.808594 L 147.800781 107.121094 C 147.800781 107.367188 147.886719 107.574219 148.058594 107.746094 C 148.230469 107.914062 148.4375 108 148.679688 108 L 152.199219 108 C 152.445312 108 152.652344 107.914062 152.824219 107.746094 C 152.996094 107.574219 153.082031 107.367188 153.082031 107.121094 L 153.082031 94.191406 Z M 153.097656 94.191406 " fill-opacity="1" fill-rule="nonzero"/><path fill="#2f4050" d="M 108.589844 70.996094 L 105.613281 70.996094 C 105.464844 70.996094 105.316406 71.027344 105.179688 71.085938 C 105.039062 71.148438 104.914062 71.230469 104.808594 71.339844 C 104.703125 71.449219 104.621094 71.574219 104.566406 71.714844 C 104.511719 71.855469 104.484375 72.003906 104.484375 72.15625 L 104.484375 80.328125 C 104.488281 80.433594 104.449219 80.519531 104.367188 80.585938 C 104.28125 80.652344 104.191406 80.671875 104.085938 80.644531 C 101.964844 80.140625 99.808594 79.902344 97.625 79.929688 C 90.285156 79.929688 84.539062 84.773438 84.539062 94.15625 C 84.539062 103.542969 90.402344 108.464844 98.324219 108.5 C 100.5 108.535156 102.664062 108.398438 104.816406 108.085938 C 106.125 107.910156 107.394531 107.578125 108.621094 107.089844 C 109.203125 106.792969 109.765625 106.410156 109.765625 105.761719 L 109.765625 72.15625 C 109.769531 72 109.742188 71.847656 109.683594 71.703125 C 109.621094 71.558594 109.539062 71.433594 109.425781 71.324219 C 109.316406 71.214844 109.1875 71.128906 109.039062 71.074219 C 108.894531 71.015625 108.746094 70.988281 108.589844 70.996094 Z M 98.488281 104.386719 C 97.285156 104.492188 96.125 104.308594 95.007812 103.835938 C 93.894531 103.363281 92.957031 102.65625 92.195312 101.71875 C 91.332031 100.648438 90.683594 99.464844 90.257812 98.15625 C 89.832031 96.851562 89.652344 95.511719 89.722656 94.140625 C 89.722656 90.460938 90.683594 87.921875 92.59375 86.230469 C 93.335938 85.457031 94.203125 84.867188 95.195312 84.457031 C 96.1875 84.046875 97.21875 83.855469 98.289062 83.878906 C 103.4375 83.878906 104.453125 85.171875 104.453125 86.230469 L 104.453125 102 C 104.484375 103.789062 103.621094 104.386719 98.488281 104.386719 Z M 98.488281 104.386719 " fill-opacity="1" fill-rule="nonzero"/><path fill="#2f4050" d="M 181.199219 90.640625 C 181.199219 84.789062 178.359375 81.457031 174.554688 80.277344 C 173.386719 79.878906 172.191406 79.597656 170.96875 79.433594 C 170.007812 79.332031 169.042969 79.300781 168.078125 79.335938 C 167.046875 79.335938 165.871094 79.449219 164.871094 79.566406 C 163.664062 79.738281 162.480469 80.011719 161.320312 80.394531 C 160.65625 80.59375 159.824219 80.960938 159.425781 81.109375 C 159.207031 81.179688 159.113281 81.328125 159.144531 81.554688 C 159.308594 82.101562 159.90625 84.125 160.140625 84.871094 C 160.1875 84.957031 160.257812 85.015625 160.351562 85.042969 C 160.445312 85.070312 160.535156 85.066406 160.621094 85.019531 L 162.148438 84.558594 C 164.183594 83.886719 166.269531 83.546875 168.410156 83.546875 L 169.753906 83.546875 C 171.015625 83.601562 172.199219 83.929688 173.308594 84.523438 C 173.789062 84.777344 174.214844 85.097656 174.59375 85.484375 C 174.972656 85.871094 175.285156 86.304688 175.53125 86.789062 C 175.773438 87.269531 175.941406 87.777344 176.03125 88.308594 C 176.121094 88.84375 176.125 89.378906 176.050781 89.914062 C 176.050781 89.996094 176.035156 90.078125 176 90.152344 C 175.964844 90.230469 175.914062 90.292969 175.851562 90.347656 C 175.785156 90.398438 175.714844 90.4375 175.632812 90.457031 C 175.550781 90.476562 175.46875 90.476562 175.386719 90.460938 C 173.878906 90.070312 172.34375 89.890625 170.785156 89.914062 C 161.699219 89.914062 157.132812 93.992188 157.132812 99.28125 C 157.132812 104.570312 162.117188 108.664062 171.515625 108.664062 C 174.679688 108.761719 177.722656 108.210938 180.652344 107.007812 C 180.984375 106.847656 181.152344 106.582031 181.148438 106.210938 L 181.148438 90.640625 Z M 176.066406 103.34375 C 176.078125 103.558594 176.015625 103.75 175.878906 103.917969 C 175.742188 104.085938 175.566406 104.1875 175.351562 104.222656 C 174.847656 104.367188 174.332031 104.472656 173.808594 104.535156 C 172.597656 104.714844 171.378906 104.808594 170.15625 104.816406 C 168.914062 104.828125 167.691406 104.683594 166.484375 104.386719 C 165.230469 104.136719 164.171875 103.539062 163.3125 102.597656 C 162.519531 101.632812 162.132812 100.527344 162.148438 99.28125 C 162.0625 98.097656 162.382812 97.035156 163.113281 96.097656 C 164.101562 95 165.316406 94.308594 166.765625 94.023438 C 167.9375 93.722656 169.128906 93.582031 170.335938 93.609375 C 171.957031 93.640625 173.539062 93.894531 175.085938 94.371094 C 175.351562 94.460938 175.570312 94.613281 175.746094 94.828125 C 175.925781 95.042969 176.03125 95.289062 176.066406 95.566406 Z M 176.066406 103.34375 " fill-opacity="1" fill-rule="nonzero"/><path fill="#2f4050" d="M 325.191406 94.140625 C 325.1875 92.699219 325.105469 91.261719 324.941406 89.828125 C 324.144531 83.910156 320.609375 80.542969 314.695312 79.566406 C 313.246094 79.316406 311.78125 79.195312 310.308594 79.203125 C 307.375 79.230469 304.492188 79.628906 301.65625 80.394531 C 300.410156 80.726562 300.277344 81.058594 300.246094 82.253906 L 300.246094 106.972656 C 300.246094 107.214844 300.332031 107.421875 300.503906 107.59375 C 300.675781 107.765625 300.882812 107.851562 301.125 107.851562 L 304.648438 107.851562 C 304.890625 107.851562 305.097656 107.765625 305.269531 107.59375 C 305.441406 107.421875 305.527344 107.214844 305.527344 106.972656 L 305.527344 85.019531 C 305.527344 84.011719 305.710938 83.792969 306.625 83.679688 C 307.980469 83.425781 309.347656 83.296875 310.726562 83.296875 C 311.710938 83.277344 312.691406 83.351562 313.664062 83.511719 C 314.3125 83.671875 314.925781 83.910156 315.511719 84.226562 C 316.097656 84.546875 316.628906 84.933594 317.109375 85.390625 C 317.59375 85.851562 318.007812 86.363281 318.355469 86.929688 C 318.703125 87.496094 318.972656 88.097656 319.164062 88.734375 C 319.699219 90.433594 319.949219 92.175781 319.910156 93.957031 L 319.910156 106.972656 C 319.910156 107.214844 319.996094 107.421875 320.167969 107.59375 C 320.339844 107.765625 320.546875 107.851562 320.789062 107.851562 L 324.3125 107.851562 C 324.554688 107.851562 324.761719 107.765625 324.933594 107.59375 C 325.105469 107.421875 325.191406 107.214844 325.191406 106.972656 Z M 325.191406 94.140625 " fill-opacity="1" fill-rule="nonzero"/><path fill="#ff6c0c" d="M 68.230469 103.492188 L 50.144531 72.238281 C 49.871094 71.761719 49.539062 71.332031 49.152344 70.941406 C 48.765625 70.554688 48.332031 70.222656 47.855469 69.949219 C 47.382812 69.671875 46.878906 69.464844 46.347656 69.324219 C 45.820312 69.179688 45.277344 69.109375 44.730469 69.109375 C 44.179688 69.109375 43.640625 69.179688 43.109375 69.324219 C 42.578125 69.464844 42.078125 69.671875 41.601562 69.949219 C 41.125 70.222656 40.695312 70.554688 40.308594 70.941406 C 39.917969 71.332031 39.589844 71.761719 39.316406 72.238281 L 21.246094 103.492188 C 21.109375 103.726562 20.988281 103.972656 20.886719 104.222656 C 20.78125 104.476562 20.695312 104.734375 20.625 104.996094 C 20.554688 105.261719 20.5 105.527344 20.464844 105.796875 C 20.429688 106.070312 20.410156 106.339844 20.410156 106.613281 C 20.410156 106.886719 20.429688 107.15625 20.464844 107.425781 C 20.5 107.699219 20.554688 107.964844 20.625 108.226562 C 20.695312 108.492188 20.785156 108.75 20.886719 109 C 20.992188 109.253906 21.113281 109.496094 21.25 109.734375 C 21.386719 109.96875 21.539062 110.195312 21.703125 110.410156 C 21.871094 110.628906 22.050781 110.832031 22.242188 111.027344 C 22.433594 111.21875 22.640625 111.398438 22.855469 111.5625 C 23.074219 111.730469 23.300781 111.882812 23.535156 112.019531 C 23.773438 112.15625 24.015625 112.277344 24.269531 112.378906 C 24.519531 112.484375 24.777344 112.574219 25.042969 112.644531 C 25.304688 112.714844 25.574219 112.769531 25.84375 112.804688 C 26.113281 112.839844 26.386719 112.859375 26.660156 112.859375 L 62.800781 112.859375 C 63.074219 112.859375 63.34375 112.84375 63.617188 112.808594 C 63.886719 112.769531 64.15625 112.71875 64.417969 112.648438 C 64.683594 112.578125 64.941406 112.488281 65.195312 112.386719 C 65.449219 112.28125 65.691406 112.160156 65.929688 112.023438 C 66.167969 111.886719 66.394531 111.738281 66.609375 111.570312 C 66.828125 111.40625 67.03125 111.226562 67.226562 111.03125 C 67.417969 110.839844 67.601562 110.636719 67.765625 110.417969 C 67.933594 110.203125 68.085938 109.976562 68.222656 109.738281 C 68.359375 109.503906 68.480469 109.257812 68.585938 109.007812 C 68.691406 108.753906 68.777344 108.496094 68.847656 108.234375 C 68.921875 107.96875 68.972656 107.703125 69.007812 107.433594 C 69.046875 107.160156 69.0625 106.890625 69.0625 106.617188 C 69.066406 106.34375 69.046875 106.070312 69.011719 105.800781 C 68.976562 105.53125 68.921875 105.261719 68.851562 105 C 68.78125 104.734375 68.695312 104.476562 68.589844 104.226562 C 68.488281 103.972656 68.367188 103.726562 68.230469 103.492188 Z M 57.882812 107.671875 L 31.59375 107.671875 C 30.890625 107.671875 30.230469 107.5 29.621094 107.152344 C 29.011719 106.800781 28.53125 106.320312 28.179688 105.714844 C 27.828125 105.105469 27.652344 104.449219 27.652344 103.746094 C 27.65625 103.046875 27.832031 102.390625 28.1875 101.785156 L 41.375 79.035156 C 41.460938 78.886719 41.554688 78.746094 41.660156 78.609375 C 41.765625 78.472656 41.878906 78.34375 42 78.226562 C 42.121094 78.105469 42.25 77.992188 42.386719 77.886719 C 42.523438 77.78125 42.667969 77.6875 42.816406 77.601562 C 42.964844 77.515625 43.117188 77.441406 43.277344 77.375 C 43.433594 77.3125 43.597656 77.253906 43.761719 77.210938 C 43.929688 77.167969 44.097656 77.132812 44.265625 77.113281 C 44.4375 77.089844 44.609375 77.078125 44.78125 77.078125 C 44.949219 77.078125 45.121094 77.089844 45.292969 77.113281 C 45.460938 77.132812 45.628906 77.167969 45.796875 77.210938 C 45.960938 77.253906 46.125 77.3125 46.28125 77.375 C 46.441406 77.441406 46.59375 77.515625 46.742188 77.601562 C 46.894531 77.6875 47.035156 77.78125 47.171875 77.886719 C 47.308594 77.992188 47.4375 78.105469 47.558594 78.226562 C 47.679688 78.34375 47.792969 78.472656 47.898438 78.609375 C 48.003906 78.746094 48.097656 78.886719 48.183594 79.035156 L 61.304688 101.785156 C 61.390625 101.933594 61.464844 102.085938 61.53125 102.246094 C 61.597656 102.402344 61.652344 102.566406 61.695312 102.730469 C 61.738281 102.898438 61.773438 103.066406 61.792969 103.238281 C 61.816406 103.40625 61.828125 103.578125 61.828125 103.75 C 61.828125 103.921875 61.816406 104.09375 61.792969 104.261719 C 61.769531 104.433594 61.734375 104.601562 61.691406 104.765625 C 61.644531 104.933594 61.589844 105.09375 61.523438 105.253906 C 61.457031 105.410156 61.382812 105.5625 61.296875 105.710938 C 61.210938 105.859375 61.113281 106.003906 61.007812 106.140625 C 60.902344 106.273438 60.789062 106.402344 60.667969 106.523438 C 60.546875 106.644531 60.417969 106.757812 60.28125 106.863281 C 60.144531 106.96875 60 107.0625 59.851562 107.148438 C 59.703125 107.234375 59.546875 107.308594 59.390625 107.375 C 59.230469 107.4375 59.066406 107.492188 58.902344 107.539062 C 58.734375 107.582031 58.566406 107.617188 58.398438 107.636719 C 58.226562 107.660156 58.054688 107.671875 57.882812 107.671875 Z M 57.882812 107.671875 " fill-opacity="1" fill-rule="nonzero"/></svg>