<svg xmlns="http://www.w3.org/2000/svg" xmlns:xlink="http://www.w3.org/1999/xlink" width="500" zoomAndPan="magnify" viewBox="0 0 375 187.499995" height="250" preserveAspectRatio="xMidYMid meet" version="1.0"><defs><clipPath id="b7817a2221"><path d="M 108 111 L 341 111 L 341 118.582031 L 108 118.582031 Z M 108 111 " clip-rule="nonzero"/></clipPath><clipPath id="0d30682b04"><path d="M 243 111 L 347 111 L 347 118.582031 L 243 118.582031 Z M 243 111 " clip-rule="nonzero"/></clipPath><clipPath id="73391ee0bd"><path d="M 237 111 L 250 111 L 250 118.582031 L 237 118.582031 Z M 237 111 " clip-rule="nonzero"/></clipPath><clipPath id="76c1ac5779"><path d="M 244 68.464844 L 275 68.464844 L 275 103 L 244 103 Z M 244 68.464844 " clip-rule="nonzero"/></clipPath><clipPath id="d4f01fac01"><path d="M 108 68.464844 L 134 68.464844 L 134 103 L 108 103 Z M 108 68.464844 " clip-rule="nonzero"/></clipPath><clipPath id="8531d21002"><path d="M 20 68.464844 L 84 68.464844 L 84 118.582031 L 20 118.582031 Z M 20 68.464844 " clip-rule="nonzero"/></clipPath></defs><g clip-path="url(#b7817a2221)"><path fill="#cbd539" d="M 108.640625 111.949219 L 114.710938 118.371094 L 339.6875 118.371094 L 340.359375 111.949219 Z M 108.640625 111.949219 " fill-opacity="1" fill-rule="nonzero"/></g><g clip-path="url(#0d30682b04)"><path fill="#185181" d="M 243.664062 111.949219 L 249.730469 118.371094 L 340.335938 118.371094 L 346.40625 111.949219 Z M 243.664062 111.949219 " fill-opacity="1" fill-rule="nonzero"/></g><g clip-path="url(#73391ee0bd)"><path fill="#c0cd3d" d="M 249.730469 118.371094 L 237.59375 118.371094 L 243.664062 111.949219 Z M 249.730469 118.371094 " fill-opacity="1" fill-rule="nonzero"/></g><path fill="#185181" d="M 338.800781 102.054688 L 346.3125 102.054688 L 346.3125 80.523438 L 354.941406 80.523438 L 354.941406 74.65625 L 330.152344 74.65625 L 330.523438 80.453125 L 338.800781 80.523438 Z M 338.800781 102.054688 " fill-opacity="1" fill-rule="nonzero"/><path fill="#185181" d="M 319.847656 102.589844 C 322.429688 102.589844 324.640625 102.21875 326.523438 101.472656 C 328.40625 100.726562 329.800781 99.679688 330.777344 98.355469 C 331.753906 97.027344 332.242188 95.46875 332.242188 93.722656 C 332.242188 91.835938 331.730469 90.371094 330.753906 89.277344 C 329.753906 88.183594 328.570312 87.390625 327.175781 86.902344 C 325.800781 86.414062 324.058594 85.945312 321.964844 85.503906 C 320.035156 85.132812 318.617188 84.738281 317.730469 84.363281 C 316.847656 83.992188 316.40625 83.386719 316.40625 82.546875 C 316.40625 81.78125 316.777344 81.175781 317.523438 80.710938 C 318.265625 80.246094 319.59375 80.382812 321.152344 80.382812 C 324.035156 80.382812 327.058594 80.40625 330.523438 80.453125 L 333.152344 74.65625 C 330.777344 74.632812 329.800781 74.65625 326.800781 74.585938 C 324.289062 74.542969 323.128906 74.519531 321.265625 74.519531 C 318.753906 74.519531 316.546875 74.519531 314.6875 75.261719 C 312.824219 76.007812 311.40625 77.054688 310.429688 78.382812 C 309.453125 79.707031 308.964844 81.246094 308.964844 82.96875 C 308.964844 84.898438 309.453125 86.4375 310.453125 87.554688 C 311.453125 88.671875 312.640625 89.460938 314.011719 89.949219 C 315.382812 90.441406 317.128906 90.90625 319.242188 91.347656 C 321.175781 91.71875 322.59375 92.117188 323.476562 92.511719 C 324.359375 92.90625 324.800781 93.511719 324.800781 94.351562 C 324.800781 95.070312 324.453125 95.652344 323.730469 96.097656 C 323.011719 96.515625 321.871094 96.746094 320.289062 96.746094 C 318.570312 96.746094 316.894531 96.515625 315.242188 96.027344 C 313.59375 95.5625 312.152344 94.910156 310.917969 94.070312 L 308.289062 99.65625 C 309.570312 100.542969 311.242188 101.265625 313.359375 101.800781 C 315.476562 102.335938 317.617188 102.589844 319.847656 102.589844 Z M 319.847656 102.589844 " fill-opacity="1" fill-rule="nonzero"/><path fill="#185181" d="M 306.265625 81.082031 C 304.941406 78.917969 303.105469 77.195312 300.777344 75.984375 C 298.453125 74.75 295.824219 74.144531 292.894531 74.144531 C 289.964844 74.144531 287.335938 74.75 285.011719 75.984375 C 282.6875 77.21875 280.847656 78.917969 279.5 81.082031 C 278.175781 83.269531 277.5 85.691406 277.5 88.390625 C 277.5 91.089844 278.175781 93.535156 279.5 95.675781 C 280.824219 97.84375 282.664062 99.542969 285.011719 100.75 C 287.335938 101.960938 289.964844 102.589844 292.894531 102.589844 C 295.824219 102.589844 298.429688 101.984375 300.777344 100.75 C 303.105469 99.519531 304.941406 97.84375 306.265625 95.675781 C 307.59375 93.511719 308.265625 91.089844 308.265625 88.390625 C 308.265625 85.691406 307.59375 83.246094 306.265625 81.082031 Z M 299.664062 92.488281 C 298.988281 93.722656 298.058594 94.675781 296.871094 95.375 C 295.6875 96.097656 294.335938 96.421875 292.894531 96.421875 C 291.429688 96.421875 290.105469 96.074219 288.917969 95.375 C 287.730469 94.675781 286.800781 93.722656 286.105469 92.488281 C 285.429688 91.253906 285.082031 89.882812 285.082031 88.367188 C 285.082031 86.808594 285.429688 85.410156 286.105469 84.203125 C 286.777344 82.96875 287.730469 82.011719 288.917969 81.316406 C 290.105469 80.617188 291.429688 80.265625 292.894531 80.265625 C 294.359375 80.265625 295.6875 80.617188 296.871094 81.316406 C 298.058594 82.011719 298.988281 82.96875 299.664062 84.203125 C 300.335938 85.433594 300.664062 86.808594 300.664062 88.367188 C 300.664062 89.90625 300.335938 91.277344 299.664062 92.488281 Z M 299.664062 92.488281 " fill-opacity="1" fill-rule="nonzero"/><g clip-path="url(#76c1ac5779)"><path fill="#185181" d="M 267.035156 68.699219 L 267.035156 78.476562 L 251.894531 78.476562 L 251.894531 68.699219 L 244.175781 68.699219 L 244.175781 102.054688 L 251.894531 102.054688 L 251.894531 84.992188 L 267.035156 84.992188 L 267.035156 102.054688 L 274.753906 102.054688 L 274.753906 68.699219 Z M 267.035156 68.699219 " fill-opacity="1" fill-rule="nonzero"/></g><path fill="#185181" d="M 203.359375 102.589844 C 207.429688 102.589844 210.59375 101.496094 212.894531 99.308594 C 215.175781 97.121094 216.335938 94.09375 216.335938 90.253906 L 216.335938 74.65625 L 208.894531 74.65625 L 208.894531 89.996094 C 208.894531 92.117188 208.429688 93.722656 207.523438 94.816406 C 206.59375 95.886719 205.242188 96.445312 203.476562 96.445312 C 201.664062 96.445312 200.289062 95.910156 199.359375 94.816406 C 198.429688 93.746094 197.964844 92.140625 197.964844 89.996094 L 197.964844 74.65625 L 190.429688 74.65625 L 190.429688 90.253906 C 190.429688 94.09375 191.570312 97.121094 193.871094 99.308594 C 196.128906 101.496094 199.289062 102.589844 203.359375 102.589844 Z M 203.359375 102.589844 " fill-opacity="1" fill-rule="nonzero"/><path fill="#185181" d="M 177.011719 102.589844 C 179.617188 102.589844 181.894531 102.195312 183.847656 101.378906 C 185.800781 100.566406 187.453125 99.308594 188.824219 97.585938 L 183.964844 93.164062 C 182.152344 95.351562 179.941406 96.445312 177.289062 96.445312 C 175.757812 96.445312 174.382812 96.121094 173.175781 95.445312 C 171.941406 94.769531 171.011719 93.839844 170.3125 92.605469 C 169.640625 91.371094 169.289062 89.972656 169.289062 88.390625 C 169.289062 85.96875 170.035156 84.015625 171.546875 82.527344 C 173.058594 81.035156 174.964844 80.289062 177.289062 80.289062 C 179.917969 80.289062 182.152344 81.386719 183.964844 83.574219 L 188.824219 79.148438 C 187.429688 77.40625 185.777344 76.125 183.847656 75.332031 C 181.917969 74.542969 179.640625 74.144531 177.011719 74.144531 C 174.128906 74.144531 171.523438 74.75 169.199219 75.984375 C 166.871094 77.21875 165.058594 78.917969 163.734375 81.082031 C 162.40625 83.269531 161.734375 85.691406 161.734375 88.390625 C 161.734375 91.089844 162.40625 93.535156 163.734375 95.675781 C 165.058594 97.84375 166.894531 99.542969 169.199219 100.75 C 171.523438 101.960938 174.128906 102.589844 177.011719 102.589844 Z M 177.011719 102.589844 " fill-opacity="1" fill-rule="nonzero"/><path fill="#185181" d="M 146.59375 102.589844 C 150.664062 102.589844 153.824219 101.496094 156.128906 99.308594 C 158.40625 97.121094 159.546875 94.09375 159.546875 90.253906 L 159.546875 74.65625 L 152.105469 74.65625 L 152.105469 89.996094 C 152.105469 92.117188 151.640625 93.722656 150.734375 94.816406 C 149.800781 95.886719 148.453125 96.445312 146.6875 96.445312 C 144.871094 96.445312 143.5 95.910156 142.570312 94.816406 C 141.640625 93.746094 141.152344 92.140625 141.152344 89.996094 L 141.152344 74.65625 L 133.640625 74.65625 L 133.640625 90.253906 C 133.640625 94.09375 134.777344 97.121094 137.058594 99.308594 C 139.359375 101.496094 142.523438 102.589844 146.59375 102.589844 Z M 146.59375 102.589844 " fill-opacity="1" fill-rule="nonzero"/><g clip-path="url(#d4f01fac01)"><path fill="#185181" d="M 108.640625 102.054688 L 133.082031 102.054688 L 133.082031 95.769531 L 116.359375 95.769531 L 116.359375 68.699219 L 108.640625 68.699219 Z M 108.640625 102.054688 " fill-opacity="1" fill-rule="nonzero"/></g><path fill="#185181" d="M 239.894531 80.359375 L 239.894531 74.496094 C 237.40625 74.496094 232.847656 74.496094 230.988281 74.496094 C 228.476562 74.496094 226.242188 74.496094 224.40625 75.238281 C 222.546875 75.984375 221.128906 77.03125 220.152344 78.359375 C 219.175781 79.6875 218.6875 81.222656 218.6875 82.945312 C 218.6875 84.875 219.199219 86.414062 220.175781 87.53125 C 221.175781 88.648438 222.359375 89.4375 223.734375 89.925781 C 225.105469 90.417969 226.847656 90.882812 228.964844 91.324219 C 230.894531 91.695312 232.3125 92.09375 233.199219 92.488281 C 234.082031 92.882812 234.523438 93.488281 234.523438 94.328125 C 234.523438 95.046875 234.175781 95.628906 233.453125 96.074219 C 232.734375 96.515625 231.546875 96.726562 229.917969 96.726562 C 228.152344 96.726562 226.40625 96.445312 224.734375 95.933594 C 223.175781 95.46875 221.800781 94.839844 220.617188 94.046875 L 217.988281 99.632812 C 219.265625 100.519531 220.941406 101.242188 223.058594 101.777344 C 225.175781 102.3125 227.335938 102.589844 229.570312 102.589844 C 232.152344 102.589844 234.359375 102.21875 236.242188 101.472656 C 238.128906 100.726562 239.546875 99.679688 240.5 98.355469 C 241.476562 97.027344 241.941406 95.46875 241.941406 93.722656 C 241.941406 91.835938 241.429688 90.371094 240.429688 89.253906 C 239.429688 88.160156 238.242188 87.367188 236.847656 86.878906 C 235.476562 86.390625 233.730469 85.925781 231.640625 85.480469 C 229.710938 85.109375 228.289062 84.714844 227.40625 84.339844 C 226.523438 83.96875 226.082031 83.363281 226.082031 82.527344 C 226.082031 81.757812 226.453125 81.152344 227.199219 80.6875 C 227.917969 80.246094 229.199219 80.359375 230.710938 80.359375 C 230.710938 80.359375 239.894531 80.359375 239.894531 80.359375 Z M 239.894531 80.359375 " fill-opacity="1" fill-rule="nonzero"/><g clip-path="url(#8531d21002)"><path fill="#185181" d="M 20.058594 68.464844 L 20.058594 118.582031 L 83.640625 118.582031 L 83.640625 68.464844 Z M 53.664062 110.203125 L 27.175781 110.203125 L 27.175781 76.847656 L 34.894531 76.847656 L 34.894531 103.917969 L 53.664062 103.917969 Z M 76.523438 110.203125 L 68.800781 110.203125 L 68.800781 93.140625 L 53.664062 93.140625 L 53.664062 98.726562 L 45.941406 98.726562 L 45.941406 76.847656 L 53.664062 76.847656 L 53.664062 86.621094 L 68.800781 86.621094 L 68.800781 76.847656 L 76.523438 76.847656 Z M 76.523438 110.203125 " fill-opacity="1" fill-rule="nonzero"/></g></svg>