<svg xmlns="http://www.w3.org/2000/svg" xmlns:xlink="http://www.w3.org/1999/xlink" width="500" zoomAndPan="magnify" viewBox="0 0 375 187.499995" height="250" preserveAspectRatio="xMidYMid meet" version="1.0"><defs><clipPath id="368e6ce028"><path d="M 19.199219 83 L 26 83 L 26 107 L 19.199219 107 Z M 19.199219 83 " clip-rule="nonzero"/></clipPath><clipPath id="4c88002889"><path d="M 19.199219 63.417969 L 44 63.417969 L 44 85 L 19.199219 85 Z M 19.199219 63.417969 " clip-rule="nonzero"/></clipPath><clipPath id="ac88a91f51"><path d="M 46 63.417969 L 72 63.417969 L 72 84 L 46 84 Z M 46 63.417969 " clip-rule="nonzero"/></clipPath><clipPath id="8303011b0e"><path d="M 19.199219 103 L 44 103 L 44 123.257812 L 19.199219 123.257812 Z M 19.199219 103 " clip-rule="nonzero"/></clipPath><clipPath id="8bbdbe359b"><path d="M 46 103 L 72 103 L 72 123.257812 L 46 123.257812 Z M 46 103 " clip-rule="nonzero"/></clipPath><clipPath id="edddc8b525"><path d="M 338 82 L 355.800781 82 L 355.800781 110 L 338 110 Z M 338 82 " clip-rule="nonzero"/></clipPath></defs><path fill="#599ddb" d="M 62.304688 81.839844 L 45.074219 72.347656 L 27.949219 81.964844 L 45.082031 91.074219 L 62.304688 81.839844 " fill-opacity="1" fill-rule="evenodd"/><g clip-path="url(#368e6ce028)"><path fill="#959ea1" d="M 19.199219 104.066406 L 25.378906 106.789062 L 25.386719 83.382812 L 19.199219 86.886719 L 19.199219 104.066406 " fill-opacity="1" fill-rule="evenodd"/></g><path fill="#599ddb" d="M 27.976562 90.351562 L 27.976562 84.761719 L 44.828125 93.710938 L 44.828125 99.308594 L 27.976562 90.351562 " fill-opacity="1" fill-rule="evenodd"/><g clip-path="url(#4c88002889)"><path fill="#959ea1" d="M 19.199219 77.332031 L 43.820312 63.480469 L 43.820312 70.25 L 19.199219 84.117188 L 19.199219 77.332031 " fill-opacity="1" fill-rule="evenodd"/></g><g clip-path="url(#ac88a91f51)"><path fill="#959ea1" d="M 71.164062 77.097656 L 46.4375 63.527344 L 46.4375 70.285156 L 71.164062 83.859375 L 71.164062 77.097656 " fill-opacity="1" fill-rule="evenodd"/></g><path fill="#599ddb" d="M 27.949219 97.585938 L 27.949219 91.996094 L 44.828125 100.96875 L 44.828125 106.507812 L 27.949219 97.585938 " fill-opacity="1" fill-rule="evenodd"/><path fill="#599ddb" d="M 62.363281 97.453125 L 62.363281 91.84375 L 45.324219 100.941406 L 45.324219 106.53125 L 62.363281 97.453125 " fill-opacity="1" fill-rule="evenodd"/><path fill="#959ea1" d="M 64.925781 103.242188 L 71.164062 99.894531 L 71.164062 83.375 L 64.914062 80.230469 L 64.925781 103.242188 " fill-opacity="1" fill-rule="evenodd"/><g clip-path="url(#8303011b0e)"><path fill="#959ea1" d="M 19.199219 110.105469 L 43.820312 123.191406 L 43.820312 116.425781 L 19.199219 103.34375 L 19.199219 110.105469 " fill-opacity="1" fill-rule="evenodd"/></g><g clip-path="url(#8bbdbe359b)"><path fill="#959ea1" d="M 71.164062 109.804688 L 46.4375 123.007812 L 46.4375 116.238281 L 71.164062 103.035156 L 71.164062 109.804688 " fill-opacity="1" fill-rule="evenodd"/></g><path fill="#599ddb" d="M 62.339844 90.21875 L 62.339844 84.609375 L 45.324219 93.699219 L 45.324219 99.304688 L 62.339844 90.21875 " fill-opacity="1" fill-rule="evenodd"/><path fill="#599ddb" d="M 27.949219 104.746094 L 27.949219 99.15625 L 44.828125 108.167969 L 44.828125 113.726562 L 27.949219 104.746094 " fill-opacity="1" fill-rule="evenodd"/><path fill="#599ddb" d="M 62.363281 104.6875 L 62.363281 99.082031 L 45.324219 108.167969 L 45.324219 113.726562 L 62.363281 104.6875 " fill-opacity="1" fill-rule="evenodd"/><path fill="#599ddb" d="M 220.113281 77.289062 L 220.113281 109.351562 L 212.765625 109.351562 L 208.40625 94.773438 L 208.40625 109.351562 L 201.394531 109.351562 L 201.394531 77.289062 L 208.40625 77.289062 L 213.105469 91.726562 L 213.105469 77.289062 L 220.113281 77.289062 " fill-opacity="1" fill-rule="nonzero"/><path fill="#599ddb" d="M 233.394531 92.398438 L 233.394531 90.476562 C 233.394531 89.117188 233.324219 88.238281 233.175781 87.84375 C 233.03125 87.449219 232.730469 87.25 232.28125 87.25 C 231.722656 87.25 231.378906 87.417969 231.246094 87.753906 C 231.113281 88.089844 231.046875 89 231.046875 90.476562 L 231.046875 92.398438 Z M 241.460938 96.675781 L 231.046875 96.675781 L 231.046875 102.359375 C 231.046875 103.550781 231.132812 104.316406 231.304688 104.65625 C 231.476562 105 231.808594 105.171875 232.300781 105.171875 C 232.910156 105.171875 233.320312 104.945312 233.527344 104.488281 C 233.730469 104.035156 233.832031 103.152344 233.832031 101.847656 L 233.832031 98.378906 L 241.460938 98.378906 L 241.460938 100.320312 C 241.460938 101.945312 241.359375 103.191406 241.152344 104.0625 C 240.945312 104.9375 240.464844 105.867188 239.707031 106.855469 C 238.953125 107.847656 237.992188 108.589844 236.832031 109.085938 C 235.667969 109.578125 234.210938 109.828125 232.460938 109.828125 C 230.761719 109.828125 229.261719 109.582031 227.960938 109.09375 C 226.660156 108.605469 225.644531 107.9375 224.921875 107.085938 C 224.199219 106.230469 223.699219 105.296875 223.417969 104.273438 C 223.140625 103.25 223 101.757812 223 99.804688 L 223 92.140625 C 223 89.84375 223.3125 88.03125 223.9375 86.703125 C 224.5625 85.378906 225.582031 84.359375 227.003906 83.65625 C 228.425781 82.949219 230.058594 82.59375 231.902344 82.59375 C 234.160156 82.59375 236.019531 83.019531 237.488281 83.871094 C 238.953125 84.722656 239.984375 85.851562 240.574219 87.257812 C 241.164062 88.664062 241.460938 90.644531 241.460938 93.191406 L 241.460938 96.675781 " fill-opacity="1" fill-rule="nonzero"/><path fill="#599ddb" d="M 252.574219 79.566406 L 252.574219 83.703125 L 254.742188 83.703125 L 254.742188 87.863281 L 252.574219 87.863281 L 252.574219 101.925781 C 252.574219 103.65625 252.664062 104.617188 252.84375 104.816406 C 253.019531 105.015625 253.765625 105.113281 255.082031 105.113281 L 255.082031 109.351562 L 251.835938 109.351562 C 250.003906 109.351562 248.695312 109.277344 247.914062 109.125 C 247.128906 108.972656 246.441406 108.621094 245.84375 108.074219 C 245.246094 107.527344 244.875 106.898438 244.726562 106.191406 C 244.582031 105.488281 244.507812 103.828125 244.507812 101.210938 L 244.507812 87.863281 L 242.777344 87.863281 L 242.777344 83.703125 L 244.507812 83.703125 L 244.507812 79.566406 L 252.574219 79.566406 " fill-opacity="1" fill-rule="nonzero"/><path fill="#599ddb" d="M 282.523438 83.070312 L 279.3125 109.351562 L 270.578125 109.351562 C 270.105469 106.140625 269.546875 101.910156 268.910156 96.65625 C 268.695312 98.96875 268.390625 101.296875 268.007812 103.648438 L 267.125 109.351562 L 258.371094 109.351562 L 254.960938 83.070312 L 261.894531 83.070312 C 261.949219 83.757812 262.535156 88.773438 263.65625 98.121094 C 263.742188 97.160156 264.34375 92.144531 265.460938 83.070312 L 272.121094 83.070312 L 273.75 98.121094 C 274.007812 93.726562 274.625 88.710938 275.597656 83.070312 L 282.523438 83.070312 " fill-opacity="1" fill-rule="nonzero"/><path fill="#599ddb" d="M 293.972656 90.320312 C 293.972656 88.972656 293.898438 88.125 293.753906 87.773438 C 293.605469 87.425781 293.296875 87.25 292.816406 87.25 C 292.339844 87.25 292.019531 87.425781 291.863281 87.773438 C 291.703125 88.125 291.621094 88.972656 291.621094 90.320312 L 291.621094 102.183594 C 291.621094 103.421875 291.703125 104.234375 291.863281 104.609375 C 292.019531 104.984375 292.332031 105.171875 292.796875 105.171875 C 293.277344 105.171875 293.589844 105 293.742188 104.65625 C 293.894531 104.316406 293.972656 103.574219 293.972656 102.441406 Z M 302.019531 92.300781 L 302.019531 98.738281 C 302.019531 101.101562 301.898438 102.832031 301.660156 103.933594 C 301.421875 105.039062 300.910156 106.066406 300.125 107.023438 C 299.34375 107.984375 298.335938 108.6875 297.109375 109.144531 C 295.882812 109.597656 294.472656 109.828125 292.878906 109.828125 C 291.097656 109.828125 289.589844 109.632812 288.355469 109.242188 C 287.121094 108.855469 286.164062 108.265625 285.480469 107.480469 C 284.796875 106.695312 284.308594 105.746094 284.015625 104.628906 C 283.722656 103.511719 283.578125 101.839844 283.578125 99.609375 L 283.578125 92.875 C 283.578125 90.429688 283.84375 88.523438 284.375 87.152344 C 284.90625 85.777344 285.863281 84.675781 287.242188 83.84375 C 288.621094 83.011719 290.386719 82.59375 292.539062 82.59375 C 294.34375 82.59375 295.894531 82.863281 297.1875 83.398438 C 298.484375 83.933594 299.480469 84.628906 300.1875 85.488281 C 300.890625 86.34375 301.371094 87.230469 301.628906 88.140625 C 301.886719 89.050781 302.019531 90.4375 302.019531 92.300781 " fill-opacity="1" fill-rule="nonzero"/><path fill="#599ddb" d="M 312.710938 83.070312 L 312.394531 86.527344 C 313.5625 84.050781 315.253906 82.742188 317.46875 82.59375 L 317.46875 91.84375 C 315.996094 91.84375 314.914062 92.042969 314.222656 92.4375 C 313.535156 92.835938 313.109375 93.386719 312.949219 94.09375 C 312.789062 94.796875 312.710938 96.425781 312.710938 98.972656 L 312.710938 109.351562 L 304.667969 109.351562 L 304.667969 83.070312 L 312.710938 83.070312 " fill-opacity="1" fill-rule="nonzero"/><path fill="#599ddb" d="M 336.589844 83.070312 L 333.320312 93.539062 L 337.5625 109.351562 L 329.828125 109.351562 L 327.316406 97.898438 L 327.308594 109.351562 L 319.261719 109.351562 L 319.261719 77.289062 L 327.308594 77.289062 L 327.316406 90.746094 L 329.828125 83.070312 L 336.589844 83.070312 " fill-opacity="1" fill-rule="nonzero"/><g clip-path="url(#edddc8b525)"><path fill="#599ddb" d="M 355.1875 91.46875 L 348.058594 91.46875 L 348.058594 90.042969 C 348.058594 88.828125 347.988281 88.058594 347.847656 87.734375 C 347.707031 87.410156 347.359375 87.25 346.804688 87.25 C 346.351562 87.25 346.011719 87.398438 345.789062 87.695312 C 345.5625 87.992188 345.449219 88.4375 345.449219 89.03125 C 345.449219 89.835938 345.503906 90.429688 345.617188 90.804688 C 345.730469 91.179688 346.070312 91.59375 346.632812 92.042969 C 347.199219 92.492188 348.355469 93.144531 350.109375 94.003906 C 352.445312 95.136719 353.976562 96.207031 354.707031 97.210938 C 355.4375 98.214844 355.804688 99.675781 355.804688 101.589844 C 355.804688 103.726562 355.523438 105.34375 354.96875 106.429688 C 354.410156 107.519531 353.476562 108.359375 352.167969 108.945312 C 350.863281 109.53125 349.285156 109.828125 347.441406 109.828125 C 345.394531 109.828125 343.648438 109.511719 342.191406 108.875 C 340.738281 108.242188 339.738281 107.386719 339.195312 106.300781 C 338.652344 105.21875 338.378906 103.582031 338.378906 101.390625 L 338.378906 100.121094 L 345.507812 100.121094 L 345.507812 101.785156 C 345.507812 103.199219 345.597656 104.117188 345.777344 104.539062 C 345.957031 104.960938 346.3125 105.171875 346.84375 105.171875 C 347.414062 105.171875 347.8125 105.03125 348.039062 104.746094 C 348.261719 104.464844 348.375 103.867188 348.375 102.957031 C 348.375 101.699219 348.230469 100.914062 347.9375 100.597656 C 347.632812 100.28125 346.074219 99.34375 343.257812 97.785156 C 340.894531 96.464844 339.453125 95.265625 338.9375 94.191406 C 338.417969 93.113281 338.160156 91.835938 338.160156 90.359375 C 338.160156 88.257812 338.4375 86.710938 338.996094 85.714844 C 339.554688 84.71875 340.5 83.949219 341.832031 83.40625 C 343.167969 82.867188 344.71875 82.59375 346.484375 82.59375 C 348.238281 82.59375 349.726562 82.816406 350.953125 83.257812 C 352.183594 83.703125 353.125 84.285156 353.78125 85.011719 C 354.4375 85.738281 354.835938 86.410156 354.976562 87.03125 C 355.117188 87.652344 355.1875 88.621094 355.1875 89.941406 L 355.1875 91.46875 " fill-opacity="1" fill-rule="nonzero"/></g><path fill="#959ea1" d="M 92.46875 83.011719 L 92.46875 90.140625 C 93.414062 90.140625 94.074219 90.011719 94.453125 89.753906 C 94.832031 89.496094 95.019531 88.664062 95.019531 87.25 L 95.019531 85.488281 C 95.019531 84.46875 94.835938 83.804688 94.472656 83.488281 C 94.105469 83.167969 93.4375 83.011719 92.46875 83.011719 Z M 84.085938 77.523438 L 90.019531 77.523438 C 93.976562 77.523438 96.65625 77.675781 98.054688 77.980469 C 99.457031 78.285156 100.597656 79.058594 101.480469 80.308594 C 102.363281 81.554688 102.804688 83.546875 102.804688 86.277344 C 102.804688 88.773438 102.492188 90.453125 101.871094 91.308594 C 101.246094 92.167969 100.019531 92.683594 98.1875 92.855469 C 99.84375 93.265625 100.960938 93.8125 101.53125 94.496094 C 102.101562 95.183594 102.457031 95.816406 102.597656 96.390625 C 102.734375 96.964844 102.804688 98.546875 102.804688 101.132812 L 102.804688 109.589844 L 95.019531 109.589844 L 95.019531 98.933594 C 95.019531 97.21875 94.882812 96.15625 94.609375 95.746094 C 94.339844 95.335938 93.625 95.132812 92.46875 95.132812 L 92.46875 109.589844 L 84.085938 109.589844 L 84.085938 77.523438 " fill-opacity="1" fill-rule="nonzero"/><path fill="#959ea1" d="M 115.550781 97.09375 C 114.261719 98.03125 113.515625 98.816406 113.308594 99.449219 C 113.105469 100.082031 113 100.992188 113 102.183594 C 113 103.542969 113.089844 104.421875 113.269531 104.816406 C 113.449219 105.210938 113.804688 105.410156 114.335938 105.410156 C 114.839844 105.410156 115.167969 105.253906 115.320312 104.945312 C 115.472656 104.636719 115.550781 103.820312 115.550781 102.5 Z M 113 93.488281 L 105.453125 93.488281 L 105.453125 91.726562 C 105.453125 89.691406 105.691406 88.125 106.160156 87.023438 C 106.632812 85.917969 107.578125 84.945312 109 84.101562 C 110.417969 83.253906 112.265625 82.832031 114.535156 82.832031 C 117.257812 82.832031 119.308594 83.3125 120.6875 84.269531 C 122.070312 85.226562 122.898438 86.402344 123.175781 87.792969 C 123.457031 89.1875 123.59375 92.054688 123.59375 96.398438 L 123.59375 109.589844 L 115.769531 109.589844 L 115.769531 107.246094 C 115.277344 108.1875 114.644531 108.890625 113.867188 109.359375 C 113.089844 109.828125 112.164062 110.066406 111.089844 110.066406 C 109.683594 110.066406 108.390625 109.671875 107.214844 108.886719 C 106.042969 108.101562 105.453125 106.378906 105.453125 103.726562 L 105.453125 101.570312 C 105.453125 99.601562 105.765625 98.261719 106.390625 97.546875 C 107.011719 96.835938 108.558594 96.003906 111.03125 95.050781 C 113.671875 94.023438 115.085938 93.328125 115.269531 92.972656 C 115.457031 92.617188 115.550781 91.890625 115.550781 90.792969 C 115.550781 89.421875 115.445312 88.527344 115.242188 88.109375 C 115.035156 87.695312 114.691406 87.488281 114.214844 87.488281 C 113.671875 87.488281 113.332031 87.664062 113.199219 88.011719 C 113.066406 88.363281 113 89.269531 113 90.734375 L 113 93.488281 " fill-opacity="1" fill-rule="nonzero"/><path fill="#959ea1" d="M 134.648438 83.308594 L 134.648438 109.589844 L 126.363281 109.589844 L 126.363281 83.308594 Z M 134.648438 77.523438 L 134.648438 81.703125 L 126.363281 81.703125 L 126.363281 77.523438 L 134.648438 77.523438 " fill-opacity="1" fill-rule="nonzero"/><path fill="#959ea1" d="M 147.691406 90.558594 C 147.691406 89.210938 147.617188 88.363281 147.472656 88.011719 C 147.324219 87.664062 147.011719 87.488281 146.535156 87.488281 C 146.058594 87.488281 145.738281 87.664062 145.578125 88.011719 C 145.421875 88.363281 145.339844 89.210938 145.339844 90.558594 L 145.339844 102.417969 C 145.339844 103.660156 145.421875 104.46875 145.578125 104.847656 C 145.738281 105.222656 146.050781 105.410156 146.515625 105.410156 C 146.992188 105.410156 147.308594 105.238281 147.460938 104.894531 C 147.613281 104.550781 147.691406 103.8125 147.691406 102.675781 Z M 155.734375 92.539062 L 155.734375 98.972656 C 155.734375 101.339844 155.617188 103.070312 155.375 104.171875 C 155.136719 105.273438 154.625 106.304688 153.84375 107.261719 C 153.058594 108.21875 152.054688 108.925781 150.828125 109.382812 C 149.597656 109.835938 148.1875 110.066406 146.59375 110.066406 C 144.816406 110.066406 143.308594 109.871094 142.074219 109.480469 C 140.839844 109.089844 139.882812 108.503906 139.199219 107.71875 C 138.511719 106.933594 138.027344 105.980469 137.734375 104.867188 C 137.441406 103.75 137.296875 102.078125 137.296875 99.847656 L 137.296875 93.113281 C 137.296875 90.667969 137.5625 88.761719 138.09375 87.386719 C 138.625 86.015625 139.578125 84.914062 140.960938 84.082031 C 142.339844 83.25 144.105469 82.832031 146.257812 82.832031 C 148.0625 82.832031 149.613281 83.101562 150.90625 83.636719 C 152.199219 84.167969 153.199219 84.867188 153.902344 85.726562 C 154.605469 86.582031 155.089844 87.46875 155.347656 88.378906 C 155.605469 89.289062 155.734375 90.675781 155.734375 92.539062 " fill-opacity="1" fill-rule="nonzero"/><path fill="#959ea1" d="M 166.667969 77.523438 L 166.667969 109.589844 L 158.382812 109.589844 L 158.382812 77.523438 L 166.667969 77.523438 " fill-opacity="1" fill-rule="nonzero"/><path fill="#959ea1" d="M 179.292969 97.09375 C 178.003906 98.03125 177.257812 98.816406 177.050781 99.449219 C 176.847656 100.082031 176.742188 100.992188 176.742188 102.183594 C 176.742188 103.542969 176.832031 104.421875 177.011719 104.816406 C 177.191406 105.210938 177.546875 105.410156 178.078125 105.410156 C 178.582031 105.410156 178.910156 105.253906 179.0625 104.945312 C 179.214844 104.636719 179.292969 103.820312 179.292969 102.5 Z M 176.742188 93.488281 L 169.195312 93.488281 L 169.195312 91.726562 C 169.195312 89.691406 169.433594 88.125 169.902344 87.023438 C 170.375 85.917969 171.320312 84.945312 172.742188 84.101562 C 174.160156 83.253906 176.007812 82.832031 178.277344 82.832031 C 181 82.832031 183.050781 83.3125 184.429688 84.269531 C 185.8125 85.226562 186.640625 86.402344 186.917969 87.792969 C 187.199219 89.1875 187.335938 92.054688 187.335938 96.398438 L 187.335938 109.589844 L 179.511719 109.589844 L 179.511719 107.246094 C 179.019531 108.1875 178.386719 108.890625 177.609375 109.359375 C 176.832031 109.828125 175.90625 110.066406 174.832031 110.066406 C 173.425781 110.066406 172.132812 109.671875 170.957031 108.886719 C 169.785156 108.101562 169.195312 106.378906 169.195312 103.726562 L 169.195312 101.570312 C 169.195312 99.601562 169.507812 98.261719 170.132812 97.546875 C 170.757812 96.835938 172.304688 96.003906 174.773438 95.050781 C 177.414062 94.023438 178.828125 93.328125 179.015625 92.972656 C 179.199219 92.617188 179.292969 91.890625 179.292969 90.792969 C 179.292969 89.421875 179.191406 88.527344 178.984375 88.109375 C 178.777344 87.695312 178.4375 87.488281 177.957031 87.488281 C 177.414062 87.488281 177.074219 87.664062 176.941406 88.011719 C 176.808594 88.363281 176.742188 89.269531 176.742188 90.734375 L 176.742188 93.488281 " fill-opacity="1" fill-rule="nonzero"/></svg>