<svg xmlns="http://www.w3.org/2000/svg" xmlns:xlink="http://www.w3.org/1999/xlink" width="500" zoomAndPan="magnify" viewBox="0 0 375 187.499995" height="250" preserveAspectRatio="xMidYMid meet" version="1.0"><path fill="#e7313a" d="M 338.597656 88.902344 C 323.808594 83.417969 314.292969 85.222656 314.292969 79.144531 C 314.292969 70.371094 335.367188 76.246094 341.382812 79.890625 L 347.605469 69.078125 C 347.808594 68.679688 347.933594 68.253906 347.972656 67.808594 C 348.011719 67.359375 347.964844 66.921875 347.832031 66.492188 C 347.699219 66.0625 347.488281 65.675781 347.199219 65.328125 C 346.914062 64.984375 346.574219 64.707031 346.175781 64.496094 C 328.074219 55.828125 296.378906 57.460938 296.378906 81.101562 C 296.378906 90.164062 301.003906 94.625 307.816406 97.691406 C 317.113281 101.863281 333.464844 101.472656 333.464844 108.011719 C 333.464844 117.039062 310.605469 111.621094 303.757812 107.160156 L 296.429688 121.039062 C 315.261719 131.191406 351.222656 131.5 351.222656 106.53125 C 351.222656 96.480469 346.109375 91.882812 338.597656 88.902344 Z M 240.296875 69.109375 C 240.089844 68.710938 239.964844 68.289062 239.925781 67.839844 C 239.886719 67.394531 239.933594 66.953125 240.066406 66.527344 C 240.203125 66.097656 240.410156 65.707031 240.699219 65.363281 C 240.984375 65.015625 241.328125 64.738281 241.722656 64.53125 C 259.839844 55.84375 291.535156 57.15625 291.535156 82.582031 L 291.535156 125.878906 L 289.054688 125.878906 C 281.867188 125.878906 282.699219 119.917969 276.324219 123.085938 C 263.699219 129.046875 252.398438 128.550781 245.222656 123.96875 C 245.363281 122.476562 245.695312 121.027344 246.222656 119.621094 C 246.753906 118.21875 247.457031 116.90625 248.339844 115.695312 C 249.21875 114.480469 250.246094 113.40625 251.414062 112.46875 C 252.585938 111.53125 253.859375 110.765625 255.234375 110.175781 C 256.117188 111.589844 257.988281 112.730469 261.046875 112.949219 C 269.460938 113.582031 275.355469 108.0625 275.355469 96.820312 C 268.863281 102.273438 263.527344 101.148438 259.621094 102.273438 C 256.167969 103.175781 254.570312 106.34375 254.640625 108.214844 C 253.164062 108.832031 251.789062 109.625 250.511719 110.597656 C 249.238281 111.566406 248.109375 112.683594 247.121094 113.945312 C 246.132812 115.207031 245.320312 116.570312 244.683594 118.042969 C 244.042969 119.511719 243.601562 121.039062 243.355469 122.625 C 242.277344 121.726562 241.3125 120.71875 240.464844 119.605469 C 239.613281 118.488281 238.902344 117.289062 238.320312 116.011719 C 237.742188 114.730469 237.316406 113.40625 237.039062 112.027344 C 236.757812 110.652344 236.640625 109.261719 236.675781 107.859375 C 236.675781 99.273438 241.996094 91.933594 249.523438 88.953125 C 264.308594 83.453125 273.625 85.257812 273.625 79.175781 C 273.625 70.40625 252.550781 76.28125 246.53125 79.925781 Z M 61.066406 77.457031 L 61.066406 125.894531 L 43.339844 125.894531 L 43.339844 77.457031 L 24.015625 77.457031 L 24.015625 61.308594 L 80.40625 61.308594 L 80.40625 74.1875 C 80.394531 74.625 80.304688 75.042969 80.132812 75.445312 C 79.957031 75.847656 79.714844 76.203125 79.398438 76.507812 C 79.085938 76.816406 78.726562 77.050781 78.320312 77.214844 C 77.917969 77.378906 77.496094 77.457031 77.058594 77.457031 Z M 102.941406 77.457031 L 102.941406 85.632812 L 130.355469 85.632812 L 130.355469 101.761719 L 102.941406 101.761719 L 102.941406 109.75 L 138.394531 109.75 L 138.394531 125.894531 L 86.847656 125.894531 L 86.847656 61.308594 L 138.410156 61.308594 L 138.410156 77.457031 Z M 199.625 116.085938 C 198.640625 116.085938 198.078125 115.574219 197.585938 114.789062 L 183.5 91.386719 C 183.769531 98.285156 183.871094 105.558594 183.871094 112.507812 C 183.871094 116.988281 183.632812 121.449219 183.53125 125.894531 L 167.386719 125.894531 L 167.386719 61.308594 L 181.96875 61.308594 C 183.105469 61.308594 184.042969 61.921875 184.621094 62.894531 L 199.625 87.777344 L 214.597656 62.910156 C 215.175781 61.941406 216.128906 61.328125 217.265625 61.328125 L 231.832031 61.328125 L 231.832031 125.910156 L 215.722656 125.910156 C 215.601562 121.464844 215.347656 117.003906 215.347656 112.523438 C 215.347656 105.574219 215.464844 98.304688 215.722656 91.40625 L 201.664062 114.808594 C 201.15625 115.589844 200.59375 116.101562 199.609375 116.101562 Z M 144.851562 61.308594 L 160.960938 61.308594 L 160.960938 125.894531 L 144.851562 125.894531 Z M 144.851562 61.308594 " fill-opacity="1" fill-rule="evenodd"/></svg>