<svg xmlns="http://www.w3.org/2000/svg" xmlns:xlink="http://www.w3.org/1999/xlink" width="500" zoomAndPan="magnify" viewBox="0 0 375 374.999991" height="500" preserveAspectRatio="xMidYMid meet" version="1.0"><rect x="-37.5" width="450" fill="#ffffff" y="-37.499999" height="449.999989" fill-opacity="1"/><path stroke-linecap="butt" transform="matrix(10.135135, 0, 0, 10.135135, 0.0000045, 0.000000000000042633)" fill-opacity="1" fill="#ffffff" fill-rule="nonzero" stroke-linejoin="miter" d="M 1.999927 2.499812 L 8.999864 2.499812 M 10.00002 2.499812 L 11.999947 2.499812 M 16.000187 2.499812 L 20.000041 2.499812 M 23.000124 2.499812 L 25.999822 2.499812 M 28.000135 2.499812 L 35.000072 2.499812 M 1.999927 3.499969 L 3.000083 3.499969 M 8.000093 3.499969 L 8.999864 3.499969 M 11.000177 3.499969 L 11.999947 3.499969 M 13.000104 3.499969 L 13.999874 3.499969 M 18.999885 3.499969 L 20.000041 3.499969 M 20.999812 3.499969 L 21.999968 3.499969 M 23.000124 3.499969 L 25.000051 3.499969 M 28.000135 3.499969 L 28.999905 3.499969 M 33.999916 3.499969 L 35.000072 3.499969 M 1.999927 4.500125 L 3.000083 4.500125 M 3.999854 4.500125 L 6.999937 4.500125 M 8.000093 4.500125 L 8.999864 4.500125 M 11.000177 4.500125 L 11.999947 4.500125 M 13.000104 4.500125 L 13.999874 4.500125 M 15.000031 4.500125 L 16.000187 4.500125 M 16.999958 4.500125 L 18.000114 4.500125 M 21.999968 4.500125 L 23.000124 4.500125 M 23.999895 4.500125 L 25.999822 4.500125 M 28.000135 4.500125 L 28.999905 4.500125 M 30.000062 4.500125 L 33.000145 4.500125 M 33.999916 4.500125 L 35.000072 4.500125 M 1.999927 5.499896 L 3.000083 5.499896 M 3.999854 5.499896 L 6.999937 5.499896 M 8.000093 5.499896 L 8.999864 5.499896 M 10.00002 5.499896 L 11.999947 5.499896 M 13.000104 5.499896 L 13.999874 5.499896 M 16.000187 5.499896 L 18.000114 5.499896 M 18.999885 5.499896 L 20.999812 5.499896 M 21.999968 5.499896 L 23.999895 5.499896 M 28.000135 5.499896 L 28.999905 5.499896 M 30.000062 5.499896 L 33.000145 5.499896 M 33.999916 5.499896 L 35.000072 5.499896 M 1.999927 6.500052 L 3.000083 6.500052 M 3.999854 6.500052 L 6.999937 6.500052 M 8.000093 6.500052 L 8.999864 6.500052 M 10.00002 6.500052 L 11.999947 6.500052 M 15.000031 6.500052 L 16.999958 6.500052 M 20.000041 6.500052 L 23.000124 6.500052 M 25.999822 6.500052 L 26.999978 6.500052 M 28.000135 6.500052 L 28.999905 6.500052 M 30.000062 6.500052 L 33.000145 6.500052 M 33.999916 6.500052 L 35.000072 6.500052 M 1.999927 7.499823 L 3.000083 7.499823 M 8.000093 7.499823 L 8.999864 7.499823 M 10.00002 7.499823 L 11.000177 7.499823 M 11.999947 7.499823 L 13.000104 7.499823 M 15.000031 7.499823 L 16.000187 7.499823 M 18.000114 7.499823 L 20.000041 7.499823 M 20.999812 7.499823 L 21.999968 7.499823 M 23.000124 7.499823 L 23.999895 7.499823 M 25.999822 7.499823 L 26.999978 7.499823 M 28.000135 7.499823 L 28.999905 7.499823 M 33.999916 7.499823 L 35.000072 7.499823 M 1.999927 8.499979 L 8.999864 8.499979 M 10.00002 8.499979 L 11.000177 8.499979 M 11.999947 8.499979 L 13.000104 8.499979 M 13.999874 8.499979 L 15.000031 8.499979 M 16.000187 8.499979 L 16.999958 8.499979 M 18.000114 8.499979 L 18.999885 8.499979 M 20.000041 8.499979 L 20.999812 8.499979 M 21.999968 8.499979 L 23.000124 8.499979 M 23.999895 8.499979 L 25.000051 8.499979 M 25.999822 8.499979 L 26.999978 8.499979 M 28.000135 8.499979 L 35.000072 8.499979 M 10.00002 9.500135 L 11.000177 9.500135 M 16.000187 9.500135 L 20.000041 9.500135 M 23.000124 9.500135 L 25.000051 9.500135 M 1.999927 10.499906 L 3.000083 10.499906 M 6.000166 10.499906 L 6.999937 10.499906 M 8.000093 10.499906 L 11.999947 10.499906 M 13.000104 10.499906 L 15.000031 10.499906 M 16.000187 10.499906 L 16.999958 10.499906 M 18.000114 10.499906 L 20.000041 10.499906 M 20.999812 10.499906 L 25.000051 10.499906 M 25.999822 10.499906 L 31.999989 10.499906 M 33.999916 10.499906 L 35.000072 10.499906 M 1.999927 11.500062 L 6.000166 11.500062 M 6.999937 11.500062 L 8.000093 11.500062 M 11.000177 11.500062 L 11.999947 11.500062 M 13.000104 11.500062 L 13.999874 11.500062 M 15.000031 11.500062 L 18.999885 11.500062 M 20.000041 11.500062 L 20.999812 11.500062 M 25.000051 11.500062 L 25.999822 11.500062 M 26.999978 11.500062 L 28.000135 11.500062 M 30.999833 11.500062 L 33.999916 11.500062 M 1.999927 12.499833 L 3.000083 12.499833 M 6.000166 12.499833 L 6.999937 12.499833 M 8.000093 12.499833 L 8.999864 12.499833 M 10.00002 12.499833 L 15.000031 12.499833 M 16.999958 12.499833 L 18.000114 12.499833 M 18.999885 12.499833 L 20.000041 12.499833 M 23.000124 12.499833 L 28.999905 12.499833 M 30.999833 12.499833 L 31.999989 12.499833 M 6.999937 13.499989 L 8.000093 13.499989 M 10.00002 13.499989 L 11.000177 13.499989 M 11.999947 13.499989 L 13.000104 13.499989 M 16.000187 13.499989 L 23.999895 13.499989 M 25.000051 13.499989 L 28.000135 13.499989 M 33.000145 13.499989 L 35.000072 13.499989 M 1.999927 14.500146 L 6.999937 14.500146 M 8.000093 14.500146 L 10.00002 14.500146 M 11.000177 14.500146 L 11.999947 14.500146 M 13.999874 14.500146 L 18.000114 14.500146 M 20.000041 14.500146 L 20.999812 14.500146 M 21.999968 14.500146 L 23.000124 14.500146 M 28.000135 14.500146 L 31.999989 14.500146 M 33.000145 14.500146 L 35.000072 14.500146 M 1.999927 15.499916 L 3.000083 15.499916 M 8.999864 15.499916 L 11.000177 15.499916 M 11.999947 15.499916 L 13.000104 15.499916 M 13.999874 15.499916 L 15.000031 15.499916 M 18.000114 15.499916 L 18.999885 15.499916 M 20.999812 15.499916 L 21.999968 15.499916 M 23.999895 15.499916 L 25.999822 15.499916 M 30.999833 15.499916 L 31.999989 15.499916 M 1.999927 16.500073 L 3.999854 16.500073 M 6.999937 16.500073 L 8.999864 16.500073 M 10.00002 16.500073 L 11.999947 16.500073 M 13.000104 16.500073 L 16.999958 16.500073 M 18.000114 16.500073 L 21.999968 16.500073 M 23.000124 16.500073 L 30.000062 16.500073 M 31.999989 16.500073 L 33.999916 16.500073 M 3.999854 17.499844 L 5.00001 17.499844 M 6.999937 17.499844 L 8.000093 17.499844 M 10.00002 17.499844 L 15.000031 17.499844 M 18.999885 17.499844 L 23.999895 17.499844 M 25.000051 17.499844 L 28.999905 17.499844 M 30.000062 17.499844 L 31.999989 17.499844 M 3.000083 18.5 L 6.999937 18.5 M 8.000093 18.5 L 8.999864 18.5 M 11.999947 18.5 L 13.000104 18.5 M 13.999874 18.5 L 18.000114 18.5 M 18.999885 18.5 L 20.000041 18.5 M 21.999968 18.5 L 25.000051 18.5 M 25.999822 18.5 L 26.999978 18.5 M 28.000135 18.5 L 28.999905 18.5 M 30.000062 18.5 L 31.999989 18.5 M 33.000145 18.5 L 33.999916 18.5 M 1.999927 19.500156 L 3.999854 19.500156 M 6.999937 19.500156 L 8.000093 19.500156 M 8.999864 19.500156 L 10.00002 19.500156 M 11.000177 19.500156 L 13.999874 19.500156 M 16.000187 19.500156 L 20.999812 19.500156 M 21.999968 19.500156 L 23.999895 19.500156 M 25.000051 19.500156 L 25.999822 19.500156 M 26.999978 19.500156 L 28.000135 19.500156 M 30.999833 19.500156 L 33.000145 19.500156 M 6.999937 20.499927 L 8.999864 20.499927 M 11.000177 20.499927 L 13.000104 20.499927 M 15.000031 20.499927 L 16.000187 20.499927 M 16.999958 20.499927 L 18.999885 20.499927 M 20.000041 20.499927 L 20.999812 20.499927 M 25.000051 20.499927 L 25.999822 20.499927 M 28.999905 20.499927 L 30.000062 20.499927 M 30.999833 20.499927 L 31.999989 20.499927 M 33.000145 20.499927 L 33.999916 20.499927 M 1.999927 21.500083 L 5.00001 21.500083 M 6.000166 21.500083 L 6.999937 21.500083 M 13.000104 21.500083 L 15.000031 21.500083 M 18.000114 21.500083 L 18.999885 21.500083 M 20.999812 21.500083 L 23.000124 21.500083 M 23.999895 21.500083 L 25.000051 21.500083 M 28.000135 21.500083 L 30.000062 21.500083 M 33.000145 21.500083 L 33.999916 21.500083 M 1.999927 22.499854 L 3.999854 22.499854 M 5.00001 22.499854 L 6.000166 22.499854 M 6.999937 22.499854 L 8.999864 22.499854 M 10.00002 22.499854 L 13.000104 22.499854 M 13.999874 22.499854 L 15.000031 22.499854 M 16.000187 22.499854 L 16.999958 22.499854 M 18.000114 22.499854 L 18.999885 22.499854 M 20.999812 22.499854 L 21.999968 22.499854 M 23.999895 22.499854 L 25.000051 22.499854 M 25.999822 22.499854 L 26.999978 22.499854 M 28.000135 22.499854 L 28.999905 22.499854 M 30.000062 22.499854 L 31.999989 22.499854 M 33.999916 22.499854 L 35.000072 22.499854 M 1.999927 23.50001 L 3.999854 23.50001 M 6.000166 23.50001 L 8.000093 23.50001 M 11.000177 23.50001 L 13.999874 23.50001 M 18.999885 23.50001 L 23.000124 23.50001 M 25.000051 23.50001 L 25.999822 23.50001 M 26.999978 23.50001 L 28.000135 23.50001 M 28.999905 23.50001 L 30.000062 23.50001 M 30.999833 23.50001 L 31.999989 23.50001 M 33.000145 23.50001 L 33.999916 23.50001 M 3.999854 24.500166 L 6.999937 24.500166 M 8.000093 24.500166 L 11.000177 24.500166 M 13.000104 24.500166 L 13.999874 24.500166 M 16.999958 24.500166 L 18.000114 24.500166 M 20.000041 24.500166 L 20.999812 24.500166 M 21.999968 24.500166 L 23.000124 24.500166 M 23.999895 24.500166 L 25.999822 24.500166 M 26.999978 24.500166 L 30.000062 24.500166 M 31.999989 24.500166 L 33.999916 24.500166 M 3.999854 25.499937 L 8.000093 25.499937 M 8.999864 25.499937 L 11.000177 25.499937 M 11.999947 25.499937 L 13.999874 25.499937 M 15.000031 25.499937 L 20.000041 25.499937 M 23.000124 25.499937 L 23.999895 25.499937 M 30.000062 25.499937 L 30.999833 25.499937 M 1.999927 26.500093 L 3.999854 26.500093 M 5.00001 26.500093 L 10.00002 26.500093 M 13.999874 26.500093 L 16.999958 26.500093 M 18.000114 26.500093 L 20.000041 26.500093 M 20.999812 26.500093 L 25.000051 26.500093 M 25.999822 26.500093 L 30.999833 26.500093 M 10.00002 27.499864 L 11.000177 27.499864 M 11.999947 27.499864 L 18.999885 27.499864 M 25.000051 27.499864 L 26.999978 27.499864 M 30.000062 27.499864 L 30.999833 27.499864 M 31.999989 27.499864 L 33.999916 27.499864 M 1.999927 28.50002 L 8.999864 28.50002 M 10.00002 28.50002 L 11.000177 28.50002 M 13.000104 28.50002 L 15.000031 28.50002 M 16.999958 28.50002 L 20.000041 28.50002 M 23.000124 28.50002 L 25.000051 28.50002 M 25.999822 28.50002 L 26.999978 28.50002 M 28.000135 28.50002 L 28.999905 28.50002 M 30.000062 28.50002 L 31.999989 28.50002 M 33.000145 28.50002 L 33.999916 28.50002 M 1.999927 29.500177 L 3.000083 29.500177 M 8.000093 29.500177 L 8.999864 29.500177 M 11.999947 29.500177 L 13.000104 29.500177 M 13.999874 29.500177 L 15.000031 29.500177 M 16.000187 29.500177 L 16.999958 29.500177 M 18.000114 29.500177 L 23.999895 29.500177 M 25.999822 29.500177 L 26.999978 29.500177 M 30.000062 29.500177 L 30.999833 29.500177 M 33.999916 29.500177 L 35.000072 29.500177 M 1.999927 30.499948 L 3.000083 30.499948 M 3.999854 30.499948 L 6.999937 30.499948 M 8.000093 30.499948 L 8.999864 30.499948 M 10.00002 30.499948 L 11.000177 30.499948 M 13.000104 30.499948 L 13.999874 30.499948 M 15.000031 30.499948 L 16.999958 30.499948 M 20.000041 30.499948 L 20.999812 30.499948 M 21.999968 30.499948 L 23.000124 30.499948 M 25.999822 30.499948 L 31.999989 30.499948 M 1.999927 31.500104 L 3.000083 31.500104 M 3.999854 31.500104 L 6.999937 31.500104 M 8.000093 31.500104 L 8.999864 31.500104 M 11.000177 31.500104 L 13.999874 31.500104 M 16.000187 31.500104 L 16.999958 31.500104 M 18.000114 31.500104 L 18.999885 31.500104 M 20.999812 31.500104 L 21.999968 31.500104 M 23.000124 31.500104 L 26.999978 31.500104 M 28.000135 31.500104 L 30.999833 31.500104 M 31.999989 31.500104 L 33.999916 31.500104 M 1.999927 32.499875 L 3.000083 32.499875 M 3.999854 32.499875 L 6.999937 32.499875 M 8.000093 32.499875 L 8.999864 32.499875 M 13.000104 32.499875 L 16.999958 32.499875 M 18.000114 32.499875 L 21.999968 32.499875 M 25.000051 32.499875 L 25.999822 32.499875 M 28.000135 32.499875 L 30.999833 32.499875 M 1.999927 33.500031 L 3.000083 33.500031 M 8.000093 33.500031 L 8.999864 33.500031 M 13.000104 33.500031 L 13.999874 33.500031 M 15.000031 33.500031 L 16.000187 33.500031 M 18.999885 33.500031 L 20.000041 33.500031 M 20.999812 33.500031 L 23.999895 33.500031 M 25.000051 33.500031 L 28.999905 33.500031 M 1.999927 34.500187 L 8.999864 34.500187 M 10.00002 34.500187 L 11.999947 34.500187 M 13.000104 34.500187 L 13.999874 34.500187 M 15.000031 34.500187 L 18.000114 34.500187 M 18.999885 34.500187 L 20.000041 34.500187 M 21.999968 34.500187 L 26.999978 34.500187 M 33.999916 34.500187 L 35.000072 34.500187 " stroke="#000000" stroke-width="1" stroke-opacity="1" stroke-miterlimit="4"/></svg>